<svg xmlns="http://www.w3.org/2000/svg" viewBox="0 0 1154.18 699.79"><defs><style>.cls-1{fill:#545e58;}</style></defs><g id="Layer_2" data-name="Layer 2"><g id="Capa_2" data-name="Capa 2"><path class="cls-1" d="M92.27,699.79c21.13-38.44,47.18-72.9,81.67-100.5,1.52-1.21,2.69-1.66.81-4.17-5.68-7.6-4-16.43-3.09-25.19a52.48,52.48,0,0,1-6.76-.68c-3.32-.75-5.71.33-8,2.71-6.5,6.84-14.48,10.3-23.84,12.18-24.44,4.92-42.74-6.09-59.56-21.47-10-9.16-11.55-20.87-9-33.49,2.73-13.41,9.83-24.95,16.07-36.84,1.14-2.16,1.63-3.93.74-6.48-4.4-12.52-4.76-25.41-3-38.47.72-5.49,1.14-10.9-3.62-15.3-2.08-1.92-1.19-4.72-.13-7,7.94-17.5,5.83-34.72-1.62-51.68-1.24-2.8.72-4.67,1.07-6.91,1.83-11.79.65-23.75,2.21-35.5,4-30,17.2-53.31,47.61-63.65,5.68-1.93,11.25-4.19,17-5.82,38.12-10.82,76.94-16.06,116.55-12.69,32.27,2.74,54.71,20,68.11,49.09a190.57,190.57,0,0,1,15.91,52.38,15.7,15.7,0,0,0,4.4,9.08c10.41,11,12.95,30.13,6,44.39a9.9,9.9,0,0,0-.42,8.92c4.55,11,11.92,20,20.27,28.16,5.82,5.7,12.28,10.81,16.34,18.07,1.14,2.05,1.77,1.39,3.25.32a84.36,84.36,0,0,1,31.58-13.84c-1.71-2.46-4.59-2.39-6.84-3.3-7.72-3.12-15.35-6.35-22.07-11.39C378.38,419,375.14,403,385.14,386.32c2.55-4.27,5.66-8.21,8.58-12.25,7.36-10.18,13.67-20.86,16.28-33.36a9.15,9.15,0,0,0-1.74-7.84,40.74,40.74,0,0,1-.84-47.13,9.6,9.6,0,0,0,1.49-6.09,200.9,200.9,0,0,1,6-53.95c8.07-33,28.08-54.8,61.29-62.93a316,316,0,0,1,131.84-4.51c33.46,6,50.81,22.94,61,63.93,2.5,10,4.1,20.25,8.5,29.71.76,1.63-.78,2.73-1,4.15-2.81,16.86-2.67,33.24,7.62,48,2.57,3.68,3.08,7.15.18,11-2,2.63-1.18,5.74-.48,8.68,2.08,8.73,5.32,17.22,5.44,26.34,0,4.16.56,8.47-.34,12.44-1.26,5.55.68,9.33,4.09,13.38a142.89,142.89,0,0,1,17.21,24.46c9.45,17.58,7.3,33-6.16,47.63-11.29,12.29-24.49,21.29-41.12,24.17a43.13,43.13,0,0,1-34-8c-2.69-2-5.27-1.35-8.33-1.23-7.87.32-9.37,4.61-9.43,11.27,0,5.69-2.33,11-4.39,16.31-2.18,5.59-6.32,9.21-12.47,11.46a393.6,393.6,0,0,1,30.08,28.6c9.35,10,18.36,20.24,23.92,33.65l4.28-3.31c18.59-14.25,37.79-27.34,61.21-32.53a86.66,86.66,0,0,1,36.17-.8c2.25.45,3.87.31,5.67-1.67,4.52-5,11.07-3.71,16.86-4.8,1.57-.29,3.89.9,4.59-.83a28.06,28.06,0,0,0,1.88-8.73c.1-1.8-2.29-1.57-3.59-2-16.44-5.91-31.65-13.93-44.66-25.75a65.52,65.52,0,0,1-6.21-6.48c-12.58-15.15-11.84-31.46,2-45.5,8.18-8.28,18.28-14.49,25.5-23.84a103.73,103.73,0,0,0,7.56-10.53c2.58-4.38,3.57-8.49,1.36-13.91-5.82-14.24-1.07-32.9,10.25-43.13a11.86,11.86,0,0,0,3.84-6.67,187.49,187.49,0,0,1,22-56.51C812,252.32,834,238.09,863.21,236.81c28-1.23,55.47,2.79,82.59,9.48A330.73,330.73,0,0,1,996,262.88c25.51,10.82,40.46,29.3,44.24,56.91a134.57,134.57,0,0,1,.55,31.33c-.6,6.26.51,12.72,1.31,19a5.11,5.11,0,0,1-.4,3.46c-7.78,15.89-11.71,32.26-5.15,49.61,1.61,4.25.86,7.69-2.25,10.73-2.53,2.47-2.84,5.69-2.68,8.8.74,15.09.39,30-6.29,44-.86,1.79.47,3.2,1.11,4.66,5.58,12.79,12.25,25.2,13.76,39.4.18,1.74.89,2.2,2.55,2.1,21.87-1.35,38.57,9.61,54,23.18,20.52,18.1,32,41.75,40.13,67.31,7.92,24.88,10.56,50.39,9.33,76.38h-1c-1-9.92-2-19.85-3.12-29.76-4-35-14-67.94-35.44-96.28-15.58-20.56-35.67-34.7-62.46-37.16-4.21-.38-5.18,1.52-4.8,4.73.81,6.94-2.12,12.51-6.68,17-14.46,14.29-31.39,23.32-52.3,23.55a51.42,51.42,0,0,1-19.65-4c-3.69,27.47-1.72,54,6.51,80,4.53,14.28,10.59,28,16,41.93h-5c-3.51-9.24-7.1-18.46-10.53-27.75-8.81-23.91-14.74-48.32-12.28-74.09.6-6.26,1.08-12.56,2.88-18.64a2.78,2.78,0,0,0-2-3.86c-2.1-.67-1.81,1.32-2.22,2.33-16.13,39.55-17.72,80.41-10.82,122h-5c-3.71-26.79-6-53.61-1.46-80.54.45-2.63-.5-3-2.78-3.19-14.66-1-27.79-7.69-41.74-11.38-3.25-.87-4.35-3.28-2.92-6.57,2-4.72,4.07-9.46,6-14.23.32-.8,1.49-1.78.47-2.62s-1.93-.08-3,.66a77.57,77.57,0,0,1-22,10.46c-20.68,6.37-40.64,5-59.93-5.18-7-3.67-12.79-8.83-18.55-14.27-1.87,4-1.07,8.48-3.37,12.16-3.87-4.19-2.62-9.91,2.7-12.94-.77-.89-1.48-1.81-2.29-2.63s-1.54-2-3-2.22c-1.64,7-3.77,9.26-8.14,10-9.92,1.6-19.79.56-29.66-.25-7.94-.64-7.92-.79-5.89-8.17.27-1,.33-2,.69-2.9,1.39-3.55,3.57-5.41,7.87-5.42,9.57,0,18.79,2.35,28.2,3.42.81.1.92.78.66,1.8-9.83-1.06-19.85,0-29.69-2-1.16-.24-2.42-1.43-3.17.74-1.06,3.06-2.36,6-3.59,9.15,10.64.71,21.08.61,31.18,2.4,5.3.94,5.65-1.24,6.45-4.66.42-1.82,1-4,2.8-4.44,2.53-.66,1.72-1.68.9-3a62.48,62.48,0,0,1-7.28-20.06c-.45-2.25-1.39-2.93-3.64-2.92-4.65,0-9.31-.16-14-.51-2-.15-4.4-.38-4.61-3.42a44.94,44.94,0,0,1,12.07.63c8.64,1.4,8.64,1.33,8.85-7.13,0-1.66.22-3.31.33-5,.07-.93.51-1.9-1-2.27-4.07-1-12.89,2.7-15.59,6.66l.14-.16c-1.42-.05-2,1.06-2.65,2-9.11,13.76-13.79,29.43-19.14,44.8-.79,2.26.56,3,2.52,3.15,5,.41,9.94.87,14.92,1.25,8.62.66,17.26,1.26,25.88,1.9,1.33.1,3,.14,2.89,1.92s-1.82,1-2.87,1.07c-7.65.25-15.34,1-22.94.5-8.59-.57-17.54-1-24.17-8.24-15.15,33.85-29.61,67.62-42.25,102.15-2.32,6.34-5.07,12.64-5.32,19.58h-4c1.76-8.79,3.27-17.64,6.25-26.14,10-28.43,22.3-55.86,34.47-83.37,4.44-10,11.11-18.91,14.82-29.26,3.16-8.81,6.81-17.35,11.92-25.19,2-3.07,1.63-4.12-2.06-4.61-12.9-1.74-25.68-1.13-38,3.12q-58,20.07-90.52,72.25C604,632.34,594,660.68,584.55,689.29c-.25.56-.51,1.13.09,1.61a10.09,10.09,0,0,0,.83-.83c3.63-3.65,7.21-7.34,10.9-10.92,10-9.73,19.92-19.57,30.16-29,5.78-5.35,11.34-4.7,16.32,1,11.46,13.21,21.17,27.72,31.31,41.91,1.51,2.12,3.55,4,4,6.74h-6c1.94-.58.48-1.54.09-2.07-10.32-14.06-19.38-29-30.6-42.46-4.32-5.15-7.35-5.62-11.41-.35-11.66,15.14-26.68,26.9-39.86,40.49-1.25,1.28-3.36,2.05-3.21,4.39h-9c.62-1.82,1.39-3.61,1.83-5.47a336.66,336.66,0,0,1,14.08-45.11c11.72-30.19,26.63-58.43,50.47-81.05,2.35-2.24,1.24-3.72.11-5.49a183.93,183.93,0,0,0-19.57-25.82c-14.15-15.32-29.34-29.5-46.28-41.72-1-.69-1.87-3.07-3.86-.94-7.36,7.88-16.87,12.79-25.78,18.55-6.57,4.26-12.84,5-19-.82a19.84,19.84,0,0,0-3.83-2.27c-.41-.87-1-.95-1.81-.5l.95,1.34a183.22,183.22,0,0,1,21.32,42c10,27.4,9.07,55.85,7.94,84.28a205.17,205.17,0,0,1-11.5,60c-.3.86-1.64,2-.09,3h-8c9.63-25.16,14-51.27,14.07-78.14.07-21.15.4-42.29-6.11-62.84-6.75-21.3-15.9-41.27-31-58-1.77-1.95-3.47-4.25-7.06-4.89,2.8,3.93,5.3,7.19,7.52,10.63,2.33,3.62,4.5,7.35,6.56,11.13C537.34,550.92,542.06,587,541,624.22c0,1.78-.59,3.56-.61,5.35a315.05,315.05,0,0,1-5.34,54c-.51,2.79-1.69,3.65-4,4.33-7.26,2.19-14.79,2.21-22.24,2.79-9.3.73-9.31.59-5.66,9.08h-5c-.3-8.2-.61-8.54-8.49-7.82a141.68,141.68,0,0,1-19.33.33,84.32,84.32,0,0,1-29.12-6c.34,4.92.65,9.19,1,13.46h-5c-1.43-26.45-3.91-52.75-13.78-77.69-7.47-18.88-18.54-35.25-34.75-47.85a69.65,69.65,0,0,0-86.38.54c-14.37,11.54-24.94,26.23-34.11,42-15,25.64-19.33,54.25-23,83h-5a408.79,408.79,0,0,1,7-41.83c7.66-33.25,24.27-61.31,49.16-84.55,1.84-1.72,3.82-3.28,6.05-5.19a7.56,7.56,0,0,0-1.66-.41,4.75,4.75,0,0,0-1.43.39c-18.54,8.87-34.25,21.25-45.47,38.6-18.25,28.25-23.93,60.23-26.68,93h-6c.89-.72.76-1.77.85-2.74a306.13,306.13,0,0,1,5-34.08c5.09-25.45,13.3-49.49,30.72-69.48.24-.28.16-.84.28-1.67-2.39.19-3.77,1.71-5.31,2.8-7.77,5.45-15.44,11-23.26,16.41-3.19,2.2-6.38,3.89-10.22.31-6.15-5.73-6.74-5.74-10.83,2-9.95,18.82-19.7,37.76-29.1,56.86-4.82,9.79-10.29,19.31-14.09,29.59h-3c7.74-16,15.19-32.11,23.3-47.91,8-15.61,14.94-31.91,26.48-45.47,1-1.14.51-1.79-.27-2.42q-4.85-3.87-9.79-7.63c-1.11-.84-1.82.12-2.46.84-3.4,3.8-8,4.82-12.66,4.65-6.66-.25-11.86,2.58-16.62,6.64-26,22.13-46.43,48.87-64.52,77.55-2.78,4.4-6.43,8.39-7.46,13.75ZM325.56,430.56l-1-1.07c-1.5-2-3-4-4.5-5.94-6.41-8.4-9.82-18.45-13.27-28-4.28-11.9-2.85-24.34,5.26-35.06,6.67-8.8,15.7-11.31,26.05-7.31l.76-.06c0-.13-.06-.34-.14-.36-.54-.15-.67.18-.66.63,1.25-.76.45-1.77.25-2.63-4.21-18-9-35.79-15.95-52.93-10.43-25.83-30.73-39.26-57.27-44-19.3-3.44-38.82-2.37-58.23-.68-27.25,2.36-54,7.14-79.75,16.81-21.45,8.05-37.5,21.24-43.69,44.24-1.34,5-2.82,9.94-3.71,15-1.3,7.39-2.46,14.85-1.47,22.85,16.28-10,33.65-15.63,51.36-20.27a437.93,437.93,0,0,1,112.62-14.11l12.89.51c3.33-.35,8.2,3.84,9.28-3.15l0,.07c3.8-8.46,8.76-14.72,19.58-14,5.79.37,9.86,1.95,12.48,7.09,3.24,6.33,6.38,12.73,9.83,19,2,3.69,4.62,7.09,5.74,11.25.49,1.84,1.2,3.73-1.88,3.73-1.51-6.6-4.21-12.14-11.7-13.69-5.2-1.08-10.34-2.55-15.57-3.46-30.49-5.29-61-3.57-91.45.27-36.62,4.61-72.27,12.89-106.06,28.38-5.92,2.71-8.44,6.13-8.2,12.21-.17.22-.52.53-.47.65.28.6.72.34,1.12.08a114.73,114.73,0,0,1,24.69-11.79c59.66-20,121-22.89,183-17.35,8.36.74,16.85,1.27,24.79,4.54,2.23,4.59-1.33,2.76-3,2.49-12.48-2.11-25-3.51-37.66-4.42a476.15,476.15,0,0,0-122.29,7.31c-22.62,4.22-44.78,10.16-65,21.68-6.24,3.55-6.47,3.58-3.85,10.32,6.14,15.76,7.27,31.31-.79,46.83-1.06,2-2.15,4.69.71,6.62,22.67-28.72,34.84-41.49,49-51.43l2-1,9.85-3.53,6,.05a52.56,52.56,0,0,1,15.3,5.48c9.84,5,19.59,10.36,30.5,12.88l-.11-.08,1.26.47,2,.44a43.6,43.6,0,0,0,10.91,3.1L205,399l1.19.47,3.41.47,1.6.56,3.44.45a2.69,2.69,0,0,0,2.54.56l4.07.34a31.07,31.07,0,0,0,15-.17l2.07-.28,1.08-.49-.09.05a3.87,3.87,0,0,0,3-.93l2.07-.71c5.8-2.53,11.17-5.67,15.42-10.48a.37.37,0,0,0,.42-.42l3.29-3.28a7.22,7.22,0,0,0,2.74-3.24l2-.21c5.41,6.4,7.18,14.27,8.91,22.15,0,.64-.07,1.28-.1,1.93a52.34,52.34,0,0,1-4.13,10.76c-4.86,6.71-12,9.71-19.49,12.28-3.17,1.08-5.62,1.18-8-1.22l.06.07q-2-6-4-11.91c-.2-.66-.39-1.32-.59-2l-.54-1.08,0,.08c-1.42-7.94-1.42-7.94-7.11-6.85l-14,0-12-1.95a.39.39,0,0,0-.6-.21l-1.33-.49-5.95-1.68a26.06,26.06,0,0,0-8.12-2.6l-1.45-.21-1.51-.66-1-.32-10-3.95h0l-1-.55-1.51-.63c-3.59-2-7.13-4-10.79-5.89-5.09-2.57-9.75-6.22-15.77-6.61l-4-.27c-8.21-.33-14.78,3.72-20.76,8.52-14.21,11.41-25.8,25.4-37.43,39.31l0-.06a15.49,15.49,0,0,0-4.12,5l0,0c-1,.86-2.33,1.64-1.56,3.2,2.38,4.88,1.15,10,1.19,15.06a79.37,79.37,0,0,0,.06,19c.59,5.09.58,10.26,2.2,16.58l11.67-24.29-.12-.28.1.28c5.38-8.21,9.84-17.07,17-24.06l0,0,7.23-5.46H120l.12-.24,6.2-3.54,1-.34,1.1-.63-.06.05,7.93-2.2,2-.25c9.1-.86,18.14-.3,26.15,4.31a364,364,0,0,1,31.29,20.34q12.24,8.82,25,16.91C233.08,475,247.41,478,260.92,483c11.55,4.3,23.08,8.74,30.07,20,.49,1.3,1,2.59,1.45,3.89,2.51,9.51-1.13,17.75-5.32,25.89l-.51,1,1.15-.19c8.16-3.66,17.16-4.55,25.47-7.72l2.07-.39,1.24-.48a5.55,5.55,0,0,0,3.69-1.07c19.58-5,33.84-16.89,44.18-33.9l0,.07a8.93,8.93,0,0,0,2.2-5.06,2.6,2.6,0,0,0,.75-3.12c.52-1.33,1.08-2.65.06-4l-.51-5-.52-1.66.07-.29c-.48-5.34-3-9.69-6.55-13.53-4.31-4.69-10-7.49-15.26-10.84l-.17.26.13-.28a224.66,224.66,0,0,1-18-14.92Zm459.36-15.91-1.44,1.29c-8.83,6.83-18.37,12.53-28,18.14-13.19,7.69-18.68,24.48-11.9,37.18C752,487,764.37,498.81,781,505.75c11.66,4.87,24.1,7.62,35.64,12.84.36.17,1,.55,1.05.46.47-.55.2-1-.38-1.34a13.41,13.41,0,0,0-.6-1.89c-8.44-17.13-3.78-31,13.16-39.33a102.1,102.1,0,0,1,20.67-7.26c2.13-.53,3.12-1.62,4.31-3.36a90.14,90.14,0,0,1,8.52-10.22,5.11,5.11,0,0,1,6.18-1.44l-11,10.17c-.58.53-1.58,1-.65,1.88a2.22,2.22,0,0,0,1.76.5c11.29-2.72,22.46-5.88,32.55-11.83,15.71-9.27,31.14-19,47-28,29-16.3,55.82-1.76,67.75,21.07a194.68,194.68,0,0,1,10.48,22.61c1.65,4.47,3.75,8.78,6,14.1,3.2-13.07,5.1-24.86,4.63-37-.17-4.28-.33-8.66,1.94-12.6.89-1.54-.3-2.53-1-3.53-9.92-13.56-20-27-31.27-39.49-5.2-5.76-10.72-11.3-18.36-14.45.62,9.57,1.22,18.81,1.82,28l-1.6.1c-.54-7.19-1.29-14.38-1.58-21.59-.34-8.55-1.41-9.78-10-9.39a20.82,20.82,0,0,0-6.36,1c-5.28,2-10.4,4.42-15.63,6.55-22.06,9-44.43,16.26-68.77,12-3-.53-3.29,1.53-4,3.25-2.16,5.39-4.1,10.88-6.35,16.24-1,2.47-2.65,5-6,3.77a67.41,67.41,0,0,1-11.3-4.95c-15.73-9.37-17.88-29-4.91-42.55,2.33-2.42,3.51-1.25,5,.83,13,18,30.77,23.65,52.24,20.37a199.44,199.44,0,0,0,54.81-16.33c10-4.7,19.78-4,29.14,2a67.89,67.89,0,0,1,15.48,14.05c11,13.12,22.18,26.2,31,41.28,3.37-3.41,1.41-6.46.29-9.18-5.41-13.14-4.18-26.1.85-38.92s5.1-12.67-6.79-19.65c-23.12-13.59-48.58-20.67-74.47-26.33A482.81,482.81,0,0,0,859.69,327a401.35,401.35,0,0,0-49.39,1.88c-4.63.47-6.31-2-5-6.16,1.47-4.52,4.76-7.78,7.1-11.68,3.68-6.14,7.32-12.3,11.15-18.34,2.12-3.34,4.91-6.14,9.29-5.68,14.75,1.53,15.82.16,21.43,15.38,1.16,3.14,2.61,3.91,5.65,3.88a339.2,339.2,0,0,1,57.18,4.52c32.49,5.23,64.12,13.35,94.58,26,9.3,3.86,17,10.44,26.38,14.45,1.44-9.86.1-19.25-1-28.68-3.29-27.13-17.78-45.47-42.72-56.26a282.26,282.26,0,0,0-43.39-14.78c-30.67-7.7-61.76-13-93.39-10.21-25,2.22-45.28,13.77-57.75,36.58-5,9.2-8.8,19-12.35,28.86-3.35,9.29-6.39,18.69-9.71,28.46,15.93-3,25.89,3,30.49,17.73,3.16,10.16,2.75,20.43-2.25,29.63-5.88,10.79-10.17,22.76-19.93,31.12ZM440.11,674l0-.07c.08.64.15,1.28.23,1.92s.11,1.35.16,2c.09,2.15-.93,4.85,2.63,5.29l7.12,1.51,5,1,6,.21c5.61,1.05,11.28.91,16.94.76h5.08c5.35.14,10.7.47,16-.69l11-.4a42.78,42.78,0,0,0,11-.8l2-.13c8.85,0,8.85,0,9.25-8.74,1.55-5.41.6-10.95.79-16.43,1.16-2.07.79-4.31.69-6.51,0-.68.09-1.37.14-2.05.07-1,.14-2,.22-3v-1.35a2.6,2.6,0,0,0,.44-2.53l.36-8.12c.4-4,1.26-7.95.85-12,0-1.67,0-3.34.07-5a12.81,12.81,0,0,0,.09-6l-.18-7a25.56,25.56,0,0,0-.58-8c-.21-3.33-.41-6.67-.62-10,0-.15.14-.32.1-.44a5.8,5.8,0,0,0-.41-.78l.07.11c-.15-1.27-.29-2.54-.43-3.81l-.15-2a5.41,5.41,0,0,0-.62-4.28c-.15-1.24-.31-2.49-.47-3.73-.17-.55-.35-1.1-.52-1.65l0-.3a31.64,31.64,0,0,0-2.23-11l-.51-2.18c-.12-.31-.24-.62-.35-.93l-.42-1.94-.56-1.17a.61.61,0,0,0-.15-.78c-.73-3.08-1.23-6.23-2.9-9-.08-2.24-1.19-4.1-2.23-6a14.35,14.35,0,0,0-2.6-6.45l-.6-1.6-.57-1h0A90.73,90.73,0,0,0,509.17,510l-.78-1.2a64.58,64.58,0,0,0-13.07-17.08l.05,0a22.4,22.4,0,0,0-6.09-6l0,0a8.53,8.53,0,0,0-3.83-3.27l0,0c-8.49-7.17-17.63-13.23-28.26-16.77l0,0-1-.58-1.94-.41c-2.78-1.76-6-2.06-9.12-2.53a6.35,6.35,0,0,0-3.87-.48c-1.24-.92-2.65-.78-4.07-.68l-3-.4a61.22,61.22,0,0,0-15-.85,32.28,32.28,0,0,0-10.05.35,2.38,2.38,0,0,0-2.27.53,4.6,4.6,0,0,0-3.69.84c-11.28,1.67-12.54,3-10.07,10.82l-.21.22.2.22.15,2c-.06,1.53-.11,3.06-.17,4.59L389,490.7l0-.06c-5.18,7.2-11.94,12.77-18.83,18.2h0l-15.14,8.69-2.85,1.37-6.09,2.68-1.95.64-1.14.58-2,.68-.85.36h0L321,529.2l14.22,3.49.39.25.45,0,1.08.51,2.11.43.8.39,2.17.62,8,3.89.09,0q7.29,4.68,14.59,9.35a18,18,0,0,0,5.16,4l1,.74,21.24,19.5c0,.27.13.38.39.35L404,583.31V570.89c0-.7,0-1.4,0-2.09v-2.92a113.58,113.58,0,0,0,.37-17.3l.47-1.65c.12-2.37.23-4.73.35-7.09s.51-4.67.76-7c.08-1,.15-2,.23-3,.07-.66.15-1.33.22-2,.39-.43.49-.84,0-1.25l.52-1.69.3-3.06a24.7,24.7,0,0,0,1.21-8l-.08-.3.57-1.64c.18-1.32.36-2.65.53-4l2.7-13.09a.53.53,0,0,0,.17-.74c.13-.38.27-.75.41-1.13.27-1.33.54-2.66.82-4a4.31,4.31,0,0,0,.81-3.05l-.05.09.49-1.08c.24-1,.47-2,.71-3a15.9,15.9,0,0,0,2-6l.95-2.59c1.9-3.64,3.71-7.34,5.75-10.9.75-1.31,2.14-2.94,2.41.39-.17.5-.33,1-.49,1.49a38.77,38.77,0,0,0-3.77,10.5,6,6,0,0,0-1.17,3.87c-1,1.14-1,2.57-1.18,4l.07-.12-.5,1.23c-.22,1-.43,1.95-.64,2.92a7,7,0,0,0-.93,4l.07-.12-.47,1.22-.45,2.8-.45,1.16c-.19,1.2-.39,2.39-.58,3.59a57.55,57.55,0,0,0-2.71,13.5l-.24,1.8a4.14,4.14,0,0,0-.65,3.15l-.33,2.87a2,2,0,0,0-.51,2.08l-.54,4.81-.51,2.21-.21,2.07q-.4,3-.79,5.94c-.17,2-.33,4-.5,6.06a8.78,8.78,0,0,0-.59,5c-.06.68-.12,1.36-.19,2l-.2,4-.19.28.18.3c-.83,1.37-.66,2.86-.57,4.35l-.5,8c-.5,5.11-.94,10.22-1.53,15.31a4.47,4.47,0,0,0,1.94,4.27l.23.29,8.52,11.23,3.63,6.1,1.2,1.95c.48,1,1,2,1.43,2.93l.69,1.14,0-.08q1.42,3,2.87,6c.23.66.47,1.31.71,2,.18.31.36.62.53.93h0l2.7,7.13,2,6a6.46,6.46,0,0,0,1.24,3.91c.11.67.23,1.34.34,2,.17.43.34.86.5,1.28l-.09-.11a15.17,15.17,0,0,0,1.41,5.8c.12.69.23,1.39.35,2.08l.45,1.19c.15.92.3,1.85.44,2.77.19.72.37,1.44.56,2.16.18,1.26.36,2.53.55,3.79q.72,4,1.45,8l.48,5A3.64,3.64,0,0,0,440.11,674Zm406.5-298.61c-.38-1,1.42-1.45.62-2.51-.11-.14-.61-.22-.69-.12-.77.89-.43,1.78.07,2.64-2.17-.1-.69,1.44-1,2.19-5.81,5.85-5.65,18.22.15,24.79,3.21-6.14,3-13.7,7.63-19.5,1.45-1.81-.61-2.17-1.8-2.63-1.67,4-3.3,8-5,12-.36.85-.55,2.23-1.92,1.59-.9-.41-.48-1.32-.08-2.13,2-4.15,1.67-9.19,5-12.91,1.17-1.31-.35-2.06-1.21-3.46l-3.61,8.33-1.06-1.1a7.61,7.61,0,0,1,1.9-5A1.84,1.84,0,0,1,846.61,375.34ZM271.17,397.9a9.21,9.21,0,0,0-1.59-6.39c-.38,2.47,1.46,4.33.76,6.49-3.59-2.2-2-6.95-5.91-10.72C264.8,395,269,401,268,409.05c-2-5.77-3.59-10.24-5.1-14.74-.34-1-.49-2.11-1.84-1.13-.71.51-1.88,1-.9,2.3,4.61,6,3.62,13.64,6.2,20.36,1.78-1.25,3.1-2.6,2.81-4.89l-.13.12c3.51-2.41,2.86-5.76,2.08-9.15C272.47,400.58,272.54,399.24,271.17,397.9ZM864.81,410c-.6-4.07,3.55-5.67,4.63-8.87a8.7,8.7,0,0,1,2.19-4.84c2.19-2.95.51-3.19-1.93-3.1-1.51-2.24-4.29-2.25-6.55-4.19-.35,3.12-2.17,5.25-1.93,8-3.33,3.73-3.41,9-6.32,13.05-.91,1.27,1.09,1.76,2.37,1.8,2.32,2.78,3.8,2.6,4.74-1.11a92.69,92.69,0,0,1,3.24-10.44c1-2.66,1.4-5.89,4.65-7.22,2.37,2.82-1.33,5.39-.36,8.15-2.89,1-2.52,3.77-2.55,5.78s0,3.11-2.21,3.16l.23,0ZM484.43,422.17l.43-1.24.4-1.94c.18-.35.36-.7.55-1l.67-1.95a52.58,52.58,0,0,1,14.13-14.58,114.78,114.78,0,0,1,15.76-9.58A158.16,158.16,0,0,0,560,360.75c9.41-9.61,18.62-19.47,28.56-28.6,12.08-11.1,25.69-17,42.25-15h.06l1.22.37,2.81.5,1.2.52,2,.49c12,4.37,20.83,12.76,28.93,22.16l.64.88,4.21,5.13,0-.05,13.35,18.65c.47-5.89,1.19-11.43-.09-16.89l-.3-4a18.4,18.4,0,0,0-1.43-7.06l-.54-2.93-.6-1.62c.06-.15.19-.33.16-.46a8.29,8.29,0,0,0-.36-.89c-.51-4.5-2.74-8.9-1.63-13.46.66-2.72-.43-3.92-2.35-5.09a.31.31,0,0,0-.42-.32l-5.35-4.51-.88-.71c-9.54-8-19.35-15.72-29.54-22.91a97.45,97.45,0,0,0-15.48-9.06c-11.9-5.47-22.69-4.39-32.88,4.39a159.29,159.29,0,0,1-30.48,20.69c-12.8,6.67-25.72,12.5-40.42,13-3.24.12-3,2.48-3.23,4.56-.75,5.6-1.41,11.22-2.25,16.81-.37,2.52-1.37,5.46-4.34,5.13-10-1.11-19.93-2.4-26.64-11.41-5.31-7.12-5.79-24.23-.74-31.39,1.84-2.6,3.21-1.17,4.83.18,15.77,13,33,15.89,52.27,8.43a190.66,190.66,0,0,0,51.79-29.52c10.55-8.57,21.86-9.69,34-3.94a81.79,81.79,0,0,1,14.15,8.37c13.66,10.21,27.75,19.88,39.84,32.59,2-3.46.27-5.8-1.33-8a48.77,48.77,0,0,1-9.52-24.33A61.49,61.49,0,0,1,673,260.6c1.22-4.87,0-7.59-5.16-9.1-8.3-2.42-16.53-5.05-25.07-6.48-24.54-4.12-49.25-4.28-74-3-43.41,2.31-85.86,9.71-126.94,24.22-1.23.43-2.53,1.36-3.79.54-1.91-1.26.7-2.62.13-4,1.26.5,2.22-.37,3.27-.74,40.1-14.23,81.61-21.34,123.91-24.34a355.71,355.71,0,0,1,64.69.89c13.57,1.51,27.07,3.48,39.79,8.89.69.29,1.47.87,2.4-.18-2-3.21-1.09-8.11-6.46-9.45-14.69-3.67-29.41-7.14-44.5-8.74a441.15,441.15,0,0,0-110,2c-21.49,3.08-42.4,8.13-62.32,17.1-6.73,3-9.8,7.84-10.69,14.69-1.24.05-1.24,2.48-3.15,1.56a78,78,0,0,1,4.3-15.58c2.71-6.78,4.42-14,6.73-20.89,1.12-3.38,2.91-6.31,6.66-7.56,11.85-3.95,18.71-1.72,25.26,9.06,1.94,3.2,3.67,3.8,7.11,2.87,23.41-6.31,47.39-9.32,71.53-10.27,37.61-1.48,75.16-1.23,112.07,11.59-3.52-18.92-9.94-36-21.67-50.77-5.49-6.92-12.72-11.66-20.77-15.18-12.36-5.41-25.51-7.52-38.77-8.82a341.25,341.25,0,0,0-91,3.62c-15.89,2.72-31.88,5.68-45.64,14.95-17.7,11.93-30,27.48-33.1,49.37-1.48,10.37-3.15,20.72-4.25,31.13-.77,7.19-1,14.44-1.5,21.92,12.87-5.3,20.78-4.32,28.69,4,10,10.47,12.57,23.09,9.49,37-.71,3.22-2.79,6.3-2.81,9.46-.06,6.83-2.89,12.59-5.72,18.4-2.27,4.65-2.43,4.57,2.63,5-2.68,5.6-5.32,11.11-8,16.62l-1.18-.51c.52-3.11.46-6.34,1.86-9.26.49-1,.57-2.12-.34-2.58-1.09-.56-1.79.64-2.32,1.39-5.28,7.52-11.89,13.83-18.42,20.19a8.11,8.11,0,0,0-3.33,3.31c-.27,0-.38.16-.34.43a22.65,22.65,0,0,0-6.84,16.54,18.73,18.73,0,0,0,.05,7,6.71,6.71,0,0,0,.88,5,1.81,1.81,0,0,0,.73,2.06,31.07,31.07,0,0,0,2.67,4.72c9.62,11.84,22,19.5,36.46,24.07a6.91,6.91,0,0,0,4,1.16c3.56,1.25,7.3,1.29,11,1.63l6,.33c5.19,1.37,10.51,1.06,15.79,1.36l-.09-.07,1.21.28,4.09.34a11.92,11.92,0,0,0,6.73.92,52.15,52.15,0,0,1-9.68-14.9l-.43-1.95-.45-1.23.07.13q0-4.34.05-8.67ZM135,491.06l1.23.43,2,.44c6.47,2.89,11.39,7.62,15.92,13,3.85,4.54,6.43,9.9,10,14.56a.41.41,0,0,0,.53.35c1.45,1.71,3.48,2.44,5.46,3.28,6.6,2.78,12.95,1.42,19.34-.88,7.17-2.57,14.29-5.49,22.19-4.67,8.89.93,15.09,5.67,18.69,13.68s1.92,15.53-3.47,22.3c-3.56,4.45-8.9,5.89-13.79,8.07l-4.89.63c-5.76.34-11.18-1.1-16.47-3.17-.5-.2-1-.94-1.53-.23s.33,1,.73,1.3c10.14,10.91,24.9,14.22,39.31,8.83l2-.57,1-.52h0c4-.67,7.52-2.62,10.93-4.58,15.46-8.89,30.21-18.67,39.66-34.49a.31.31,0,0,0,.23-.46A27,27,0,0,0,288.8,517c1-2.7.66-5.43.12-8.17-.68-5.45-3.68-9.21-8.16-12.28-8.13-5.56-17.32-8.66-26.37-12.12l-3-1c-11.91-4.56-23.29-10.67-36.14-12.54a.73.73,0,0,0-.84-.15l-1.08-.53-1.87-.49c-12.58-4.56-25.27-8.8-37.71-13.77-5-2-10-4.23-15.49-5l-1.36-.28-1.59-.57-3.94-.6c-9.33-2-18.68-2.23-27.17,2.57-12.36,7-21,18.41-30.83,28.2-8,7.91-11.2,19.44-16.6,29.33l-.83,2a62.84,62.84,0,0,0-8.17,23.74c-1.32,10.5,1.08,19.73,9.2,27a52.91,52.91,0,0,0,12,8.64,4.85,4.85,0,0,0,3.26,1.72c18,12.55,47.86,11.35,59.56-2.6a29,29,0,0,1-15-7.12c-12.06-10.59-16.94-24.74-20.67-39.59a42,42,0,0,1-.82-11.4c0-1.05.31-2.17,1.49-2.24s1.47,1,1.62,2.09a123.77,123.77,0,0,0,1.92,12.32c3.2,12.65,7.18,25,16.9,34.46a24.24,24.24,0,0,0,14.34,7.06c-22-16.51-35.22-45.79-27.82-62.48.79,9.13,2,17.31,4.51,25.15,8.44,26.51,28.42,43.49,59.5,33.69-1.18-2.5-2.75-3-5.55-2-18.08,6.13-33.2.35-43.07-16-7.25-12-9.34-25.47-10.91-39.06-.11-.95-.69-2.34,1.1-3.06,2.48,2.54,2.52,6,3.07,9.11a91.44,91.44,0,0,0,12,32.65C152.34,556.48,167,560.8,181.17,555c-2.33-1.27-2.33-1.28-5.25-.56-8.7,2.18-16.23.89-22.57-6.25-4.15-4.68-7.8-9.57-10.08-15.32-2.93-7.37-5.53-14.87-8.12-22.37-.92-2.66-2.74-5.25-1.7-8.51,2.81.79,3.06,3.2,3.85,5.06,3.46,8.19,6.67,16.5,10.18,24.67,3.41,7.91,7.89,14.95,16.05,19,2.65,1.31,4.83,1.46,7.42,0-16.22-8-31.34-33.84-26.76-46.05,3.17,3.41,4,7.7,5.25,11.7,4,12.55,9.6,23.78,22.59,29.31l.6-.69-.47-.14-.07.89c.16-4.66-3.59-7.51-5.31-11.3-5.07-11.15-9.47-22.74-18.53-31.61-10-9.76-22.19-10.76-33.4-2.54-9.74,7.13-11.65,19.16-5.65,31.3,4.34,8.78,9.07,17.39,12.35,26.69,4.26,12.05.72,17.67-12.1,18.42-2,.11-4-.46-6-.44-4.17,0-7.25-3.37-11.37-3.36.71-2.06-1.46-1.82-2.18-2.73-2.76-3.08-5.79-5.9-8.17-9.34-3.51-5.06-4.32-10.51-1.77-16,2.76-5.85,8.2-7.9,14.4-8,3.31,0,6.62.18,9.93.34,2.94.14,3.29-1,2.12-3.51-1.9-4.21-3.47-8.57-5.18-12.87l1-11c3.12-9.4,10.39-14.34,19.06-17.8l3-.6,1.21-.42-.12.07,9.68,0Zm723.1-104c-.69-1.22-.29-3.22-2.44-3.29-2.49,6-4.87,12.19-7.61,18.19-1.32,2.89-.86,4.35,2.27,4.87-.43,1.84,1.18,2.4,2.21,2.6,1.62.33,1.38-1.47,1.75-2.42,2.13-5.54,2.06-11.94,5.84-16.77C863.15,386.33,860.59,386.93,858.07,387.06ZM489.59,325.29c2.41.22,1.76,4,4.53,3.84,1.44-6.87-.71-14.2,2.6-20.85.71-1.43-.64-1.71-1.38-2-1.23-.48-1.15.58-1.26,1.38-.63,4.42-1.18,8.85-2,13.22-.31,1.63.67,4.29-2.52,4.35,1.16-1.63.57-3.51.78-5.28.49-4.24-.36-8.59.88-12.77.5-1.66,2-3.88-.77-4.22a3.6,3.6,0,0,0-4.09,3.82C486.25,313.19,486.29,319.5,489.59,325.29ZM227.64,605.2a29.28,29.28,0,0,1,3.22-2.27c4.11-2.2,2.87-4.06-.21-6-4.77-3-9.43-6.2-13.21-10.4-2.63-2.93-4-.37-5.56,1-2.45,2.09.32,2.58,1.27,3.45,3.88,3.6,7.9,7,11.72,10.7.86.83,3,.89,2.25,3a54.33,54.33,0,0,1-15.81-11.8c-2.37-2.51-3.76-1.73-5.5.21-2.12,2.36.06,3,1.58,3.94,3.62,2.14,6.52,5.1,9.48,8C222,610.08,222.07,610.05,227.64,605.2ZM499.48,308.43l-.13.2.2-.14c-1.74,5.34-1.91,11-3.12,16.43-.93,4.22-.67,7.05,4,9.23,5.41,2.5,6.1,2.52,6.89-3.09.71-5.06-.26-10.31,1.67-15.22.37-.93.71-2.06,2-1.77s1,1.53.86,2.46c-.92,5.74-1.84,11.48-2.89,17.19-.22,1.23-1.49,2.52.81,2.93,2,.36,1.61-1.28,1.69-2.27.32-4,.3-8,.85-11.92.4-2.86-.32-6.43,3.28-8.11,1.26,1.4.28,3,1,4.55,1.28-2.65,2.93-4.65-2.05-5.15A33,33,0,0,1,499.48,308.43ZM255.34,398.84c-4.91,2-10.79,3-14.32,6.48-1.65,1.61,2.66,7.31,4.08,11.23.39,1.07.8,2.12,1.21,3.18.39,1.69.86,3.36,1.17,5.06s1.5,1.64,2.79,1.31c7.32-1.86,7.22-1.82,4.31-8.41-.88-2-.47-4.45-1.87-6.34l0,.08a52.66,52.66,0,0,1-1.42-5.73c-.21-1.43-2-3.52.32-4.26,1.65-.53,2,1.78,2.6,3.05,1.83,4,2,8.37,2.95,12.58.47,2.12.05,5.52,3.41,4.22,2.1-.82,5.9-1.87,4-6.45-2.55-6.06-4.31-12.46-6.43-18.8-1.46.59-2.82,1.11-2.94,2.92Zm525.81,134-.07-.4c-.08.16-.16.33-.25.49l.37-.16c-.93,7.29-.81,7.51,5.74,9.38,14.18,4,28.86,4.84,43.38,6.62,5.42.66,10.89,1.57,17.25.8-4.1-2.54-6.32-6.07-11-6.09A158.09,158.09,0,0,1,781.15,532.86Zm-543.91,39c-3.67.85-7.23,1.92-9.9,4.83l.16-.16c-3.83,1.46-6.8,4.14-10,6.77,6.56,3.5,11.51,8.36,16,13.65,1.44,1.71,2.14,2.44,4.16.83,4.75-3.8,9.69-7.36,14.55-11l7.53-4.18c-4.95-4.29-10.42-7.37-15-13,5.07.12,7.43,3.06,9.59,5.47,4.68,5.21,9.32,7.8,15.43,2.35,8.78-4.16,17.58-8.28,26.32-12.52,3.21-1.56,7.1-1.68,9.68-4.57l0,0c3.87,0,6.91-2.39,11.21-3.23l-19.28-17c2-1.14,3.5-.17,4.72.84a117.85,117.85,0,0,1,14.3,13.87c.56.65.25,2.24,1.75,1.78,3.16-1,6.35.69,9.32.11,13.91-2.72,27.62-2.38,41.37,2-1-3.13-1-3.16-3.31-4.83a146.88,146.88,0,0,0-30-16.61c-14.21-5.92-28.45-7.44-43.07-1.7-6.07,2.39-12,4.95-16.4,10-3.91,4.5-9.56,7.09-13,12l.18-.16c-3.31-.2-4.69,2.71-7.45,3.94a20.34,20.34,0,0,1,2.21,2.13c3.34,4.63,8.62,7.63,10.93,13.1-5.87-2.07-9.25-7.2-13.6-11.12-1.36-1.23-2.28-2.57-4.54-1.21C246.56,567.13,241.86,569.44,237.24,571.9ZM816.68,311.63a134.83,134.83,0,0,1,31.87-5.09c1.2,0,3.69,1,3-2.18-1.89-8.74-6.31-12.81-15.3-13.86a13,13,0,0,1-2-.2c-3.84-1-6.28.66-8.18,3.9-3.28,5.56-6.74,11-10.12,16.51l-.56,1Zm-512.63,15c.05.44-1.13-.09-.6.75l.6-.74c-3.53-3.39-5.48-7.78-7.52-12.08-5.37-11.29-5.63-11.44-18.26-9.95-2.88.34-5,1.3-6.27,4.09a53.14,53.14,0,0,1-3.92,6.93c-1.93,2.94-1.07,3.85,2.22,4.15a112.89,112.89,0,0,1,30.54,6.91C301.91,327.08,303,327.71,304.05,326.62ZM578.68,489.69l.87.72c3.15,2.45,6.31,4.88,9.43,7.37,1.24,1,2.3,1.72,3.94.53,3.24-2.35,6.6-4.53,8.47-8.26,3.93-7.89,5.91-16.33,7.52-25.25-3.25,0-6.39.81-8.82-.15-6.69-2.65-8.75,2.39-12.63,6.45,4.87,0,8.85,0,12.83,0,1.26,0,3.27-.66,3.43,1,.19,2-2.08,1.65-3.4,1.85-2.29.34-4.73.06-6.93.67-3.84,1.08-7.8-2.07-10.88-.59a53.46,53.46,0,0,1-19.72,5.37Zm32.48-70.85c-8.44,5.72-17.52,6.9-27.4,4.56-5.47-1.29-11.17-2.08-16.78-.46-6.32,1.83-11.68,4.84-13.64,11.79-2.14,7.61.21,13.93,6,18.75,13.23,10.93,34,4.71,42.16-6.77,5.67-8,8.66-17.52,10.08-27.36.08-.38.32-1,.22-1.1C611.27,417.92,611.26,418.48,611.16,418.84ZM899.21,587.93a15,15,0,0,0-5,10.93c-3.64,2.22-1.39,3,.93,3.59,13.3,3.54,26.64,6.91,39.87,10.68,2,.58,2.62.85,3-1.26.6-3.52.81-7.18,2-10.51,2.33-6.71,4.68-13.5,8-19.77,3-5.82,4.25-10.31-2.16-14.64-2.24-1.51-3.6-4.7-6.79-4.32-7.83.94-15.15-1.4-22.52-3.24-2-.52-2.82-.31-3.8,1.53-4.06,7.62-8.36,15.1-12.41,22.71C899.63,584.87,897.88,586.09,899.21,587.93ZM795.05,396.76c-12.71,7.42-18.62,6.71-29.68-3.59a103.13,103.13,0,0,1-22,28.05c-4.55,4.15-9.49,7.94-13.57,12.5-6.93,7.71-11.57,16.7-8.33,27.35,4.25,13.92,16.25,20.82,27.39,28.4a51.92,51.92,0,0,0-4.7-8c-12.48-19.24-8.17-38.68,11.21-51,7.59-4.81,15.65-8.84,22.86-14.24,7-5.23,13.54-10.8,17.53-18.8l.09-1.15Zm-477.7,16a5.7,5.7,0,0,0-.73-.79c-.67.45-.24,1,0,1.43,3.49,8.39,9.74,14.56,16.46,20.34C341.56,441,351.69,446,360,453.52a33.16,33.16,0,0,1,6.05,42.53c-2.54,4-5.65,7.73-8.73,11.89,4.46,0,7.1-3.33,10.27-5.14,7.72-4.4,14.35-10.17,18.46-18.36a24.29,24.29,0,0,0,.68-20.3c-3.56-8.48-10.56-15-17.27-21.43a93.74,93.74,0,0,1-21.79-31.31c-3.19.26-4.25,3.71-6.88,5.1C332,421.15,324.46,418.41,317.35,412.75Zm467.88,140c-.13-.41-.27-.93-.79-.57-.16.1.06.75.11,1.15,4.53,13.72,14.77,22.3,26.89,28.71,23.81,12.6,47.83,10.67,71.39-.77,10.78-5.23,21-11.62,27.55-22.24l1.46-1.72c-1.14-.85-1.67.14-2.32.77-9.85,6.6-20.53,9.19-32.27,6.65-.81-.17-1.71-.69-2.41-.49-10.21,2.91-20.68,2.77-31.1,2.48C823.29,566.2,803.35,563.19,785.23,552.78ZM690,457.24c-1-2.2-2.16-.33-3,.09a31,31,0,0,1-11.89,3.46c-11.46.6-15.61-4.17-13.64-15.39,1.79-10.18,4.9-20,8-29.84,3.54-11.24-.54-23.24-10.14-28.62-11.43-6.41-24-4.26-31.83,5.57a55.42,55.42,0,0,0-9.24,17.55c-3.31,10-4.62,20.58-9.67,30.24,2.36,0,3.54-1.28,4.77-2.26,8.09-6.45,11.14-15.46,12.72-25.22q1.2-7.38,2.59-14.75c.18-.92.61-2.21,1.76-2.13,1.58.13,1.39,1.57,1.32,2.71-.26,4.32-.27,8.67-.88,12.94-2.22,15.62-7.42,29.26-24.06,34.53,12.54.67,19.78-6.11,23.13-17.8,1.33-4.63,2.46-9.33,3.34-14.07,1.27-6.87,2.78-13.68,4.72-20.4.33-1.12.58-2.51,2-2.37s1.19,1.45,1,2.4c-2.44,13.39-2.68,27.31-8.68,39.83-3.36,7-7.19,14.13-15.91,16a34,34,0,0,1-11.86.34c-1-.14-2-.19-2.07,1.3,0,1.27.81,1.06,1.66,1.11,19.69,1,30.23-6.92,35-26.08,2.52-10.09,2.64-20.44,3.71-30.7.2-1.85-.51-4.1,1.69-5.39,7,13.46-.48,45.69-14.08,60.84-8.93,5.47-18.56,7.59-28.91,5.77-2.58-.45-3.56.65-4.28,3.09,12.41,1.08,24-.09,34.16-7.9a13.39,13.39,0,0,0,2-1.38,54.94,54.94,0,0,0,16.66-38.38c.23-6.87,0-13.76,0-20.64l1.36,0c2.78,11.21,3.51,22.57.75,34-2.81,11.61-8.93,21.42-17.46,30,5.39-.73,10.9-5.4,14.47-12.71,6.59-13.51,8.37-27.93,7.49-42.78-.1-1.55-1.11-3.88,1.17-4.14s2.05,2.25,2.24,3.79c2,16.13-.46,31.53-8.37,45.79-4,7.25-9.13,13.69-19,16.21,10.25,5.16,19.19,7.59,29,6.25,10.27-1.4,19.33-5.77,28.12-10.86,1.8-2.91,5.71-4,7.5-8C691.88,451.8,689.91,454.07,690,457.24Zm322.77,112.29c4.47-1.56,8-4.71,11.51-7.59,6-4.85,11.2-10.44,11.68-18.82.25-4.49.9-9.1-.39-13.43-6.29-21.15-12.38-42.42-28.49-58.85-3.14-3.2-5.82-6.85-8.77-10.24-3.59-4.13-6.91-8.49-11.64-11.5-10.29-6.53-21.56-6.34-32.87-4.52-11.85,1.9-23.06,6.35-34.58,9.6-11.81,3.33-23.74,6.12-35.8,8.56-12.47,2.53-24.45,7.49-36.64,11.41-7.12,2.3-14.2,4.61-20.71,8.5a18.08,18.08,0,0,0-9.2,14.54c-.73,7,1.64,13.23,5.2,18.89a105,105,0,0,0,53.26,43.26c12.06,4.52,23.61,2.28,34-5.39.82-.61,2.16-1.09,1.25-2.82-1.73.33-3.53.55-5.27,1-6.94,1.82-13.61.73-20-2.15-15.25-6.9-18.19-25.77-5.72-36.59,7.24-6.29,15.63-7,24.38-4,6,2,11.7,4.8,17.7,6.74,9.48,3.07,17.28.21,23-7.83a69.18,69.18,0,0,1,16.15-16.9c10-7.09,24.13-5.91,34.21,2.73,9.45,8.09,11.68,19.58,6,31.14-1.41,2.88-2.9,5.73-4.88,9.64,5.22,0,9.37-.28,13.46,0,13.48,1.09,19,12.75,11.51,23.94-2.52,3.76-6.09,6.52-9.12,9.8-7.24,4.26-14.77,6.55-23.3,4.47-9.44-2.31-12.28-7.61-8.58-16.51,4.18-10,9.88-19.23,15.46-28.48,8.34-13.8,3.39-29.43-11.48-35.53-9.89-4.06-18.39-1.74-26.26,5.14-12.47,10.92-16.75,27.12-27.45,40.49,2-.49,2.82-.59,3.56-.87,8.61-3.28,14.19-9.71,18-17.76,2.73-5.7,5.12-11.56,7.74-17.31.52-1.14,1.1-2.94,2.7-2.34s.69,2.25.34,3.45a128.34,128.34,0,0,1-6.49,18.33c-3.76,8.19-10.32,13.7-17.43,18.8-2.31,1.65-5.7.24-7.52,2.94,8.48,1.88,14.7-1.46,19.71-7.92,4.32-5.58,7.23-11.91,10.19-18.25C964,511.44,967,505.72,970,500c.59-1.14,1.25-2.83,2.86-2,1.27.65.39,2.14,0,3.14-1.16,2.85-2.53,5.62-3.68,8.47-5.12,12.64-9.65,25.58-21,34.51-4.74,3.74-9.64,5.48-15.7,4.3a48.8,48.8,0,0,1-7.71-1.91c-1.41-.52-2.5-.4-2.74.9-.27,1.48,1.3,1,2.14,1.21,2,.4,3.93.68,5.89,1.05C943.51,552.16,954,548,961,536c1.43-2.44,2.8-4.92,4-7.46,4.12-8.4,6.46-17.45,9.54-26.24.58-1.68.5-4.07,3.93-4.44-2,12.84-4.27,25.32-10.87,36.28-11.73,19.46-24.76,27-48.52,17.8-2.82-1.09-3.19.73-4.2,2.71,4.49.95,8.55,1.86,12.63,2.66a36.65,36.65,0,0,0,12.92.32c17-2.71,32.88-19.07,37.55-38.61,1.48-6.22,3.11-12.4,4.67-18.6a60.55,60.55,0,0,1-5.87,32.89c-5.16,10.69-13.6,18.57-23.48,25.28,4.22,1,7.16-1.09,10-3.07,6.92-4.8,11.3-11.63,14.93-19a90.8,90.8,0,0,0,8.73-27c.19-1.32.24-3.08,1.94-2.93s1.37,1.93,1.4,3.24A35.41,35.41,0,0,1,988.29,522c-6.72,19.51-15.15,37.52-37.91,43,1.46,2.35,3.71,3.78,5.94,5.17C975.26,582,994.05,579.08,1012.74,569.53ZM696.06,449.75c2.34.15,3-.92,3.84-1.69,13.39-12.48,16.84-26.47,7.53-42.75-10.67-18.64-21.81-37.43-41.41-48.81-3.58-2.07-6.73-4.87-10.14-7.26-4.47-3.14-8.7-6.64-14-8.36-14-4.52-26.7-.16-38.77,6.26-12.77,6.8-25.1,14.43-37.67,21.61-7.34,4.19-15.38,7.09-22.7,11.21-7.94,4.47-15.68,9.4-23.45,14.21-8.32,5.15-16.88,9.92-24.28,16.55s-8.19,14.4-5.39,22.73c1.47,4.37,4.87,8.15,8.21,11.63,12.22,12.73,27.65,20,44,25.67a64.87,64.87,0,0,0,23.52,3.95c11.5-.39,22.85-7,26.76-15.58-1.54-.9-2.45.63-3.46,1.11A33.92,33.92,0,0,1,567.35,463c-11.29-2.15-19-11.77-18.21-22.77.92-13.69,13.27-22.86,28.56-21.08,5.46.64,10.86,1.79,16.32,2.3,10.35,1,17.45-3.66,21.21-13.27a83.4,83.4,0,0,1,8.91-16.69c7.28-10.68,17.46-13.88,29.68-11.35,13.48,2.78,20.31,11.93,20.58,26,.1,5.09-2.19,9.59-2.4,14.76,4.56.34,8.57-1.64,12.81-2.17,6-.74,11.54.09,15.32,5.14s3.87,10.84,1.06,16.52C699.69,443.39,698,446.31,696.06,449.75Zm-283.57,3.78a15.74,15.74,0,0,0,1.8.48c1.49,0,3,0,4.48,0,22.74.31,43.61,5.87,62.76,19,18,12.31,34.44,26.68,53.08,38A6.56,6.56,0,0,0,539,512.1c3.63-.21,5.74-2.9,8.46-4.63Q558.16,500.66,569,494c3.06-1.88,4-3.4.38-5.93-7.13-4.94-14-9.94-23-11.32a50.45,50.45,0,0,1-12.77-4.08c-3.62-1.64-6-1.18-9,1.44-4.11,3.58-8.88,6.43-13.42,9.51-1.43,1-3,2.51-4.55,0s1-2.78,2.11-3.49c5.56-3.52,11.23-6.86,17.26-10.51-6.73-3-12.72-6-18.07-9.9-7.25-5.36-15.46-7.56-24.22-8.08-13.94-.84-28.07-.18-41.75-3.11C431.52,446.29,422.83,450,412.49,453.53Zm626.16-87.3c-1.41-4.09.87-8.58-3.81-11.11-13.17-7.13-26.51-13.9-40.61-19.07A439,439,0,0,0,885,311.28c-21.29-2-42.49-2.06-63.65,1.82-7.2,1.31-11.37,5.24-14,12,4.8-.45,9.38-1,14-1.29A449.24,449.24,0,0,1,919.49,328C960.94,334.09,1001.64,342.91,1038.65,366.23ZM351.4,385.08a39.89,39.89,0,0,0-4.79-20.16c-6.93-12.42-21.54-13.62-30.5-2.51-9.56,11.84-9.22,34.13.69,45.65,8.36,9.72,19.77,9.52,27.62-.55C349.55,400.93,351.38,393.27,351.4,385.08Zm95.89-73.84c-.29-8.57-3.2-18.61-11.9-26.07-8.51-7.3-20.45-5.95-26.31,2.66-9.45,13.87-4.06,40.36,10,49.41,7.56,4.85,15.56,3.73,21.49-3.1C445.7,328.29,447.22,321.25,447.29,311.24ZM805.4,370.08c0-12.42-2-19.23-6-24.55-7.26-9.6-20.08-10.5-27.65-1.94-9.86,11.16-11.5,32.57-3.44,45,7.61,11.76,20.06,12.57,29,1.75C803.11,383.4,805.34,375.15,805.4,370.08ZM444,335.4c-4.08,4.06-8.21,7.82-14.21,8.61s-11.3-1.54-16.14-4.81a105.64,105.64,0,0,1-17,36.18c-2.89,4.06-6,8.08-8.18,12.51-4.47,8.94-6.73,18.45-1.26,27.69,7.5,12.67,20.77,16.65,33.54,21.25-2-2.59-4.42-4.56-6.63-6.77-5.69-5.66-11.08-11.42-12.21-20-1.63-12.25,1.78-22.65,10.35-31.5,6.6-6.81,13.86-13,19.86-20.38C437.53,351.44,442.42,344.39,444,335.4ZM166.33,523.83c2.7,8.65,7,15.9,11.84,22.9a22.71,22.71,0,0,0,11,8.47c10.36,4,20.48,4.56,30.22-1.8,6.9-4.5,10.54-13,8.54-20.23-2.17-7.82-8.09-12.2-17.11-12.7a33.74,33.74,0,0,0-13.17,2.3C187.41,526.39,177.17,530.27,166.33,523.83Zm727.86-12.94c-6.47.34-12.8,2-16.36,9.1-3.47,6.9-2.25,13.29,2.09,19.18,8.77,11.9,32.39,13.49,42.72,2.91a82.15,82.15,0,0,0,14.55-20.72c.5-1,1.55-2,.61-3.13-.74-.87-1.93-.29-2.8.06-7.36,3-14.31,1.38-21.24-1.58C907.68,514.11,901.69,511.11,894.19,510.89Zm100.66,59.53c11.24-.2,18.78-4.72,23.91-13.09,4.92-8,1.29-16.05-7.83-18.35-5.16-1.31-10.64,0-15.65-2.23-1.21-.55-1.67.54-2.19,1.41-3.83,6.41-7.52,12.9-10.06,19.94-1.93,5.36-.12,9,5.31,10.95A40.67,40.67,0,0,0,994.85,570.42Zm-895-29.86v-.24c-.83-.05-1.66-.15-2.49-.14-11.82.23-17.9,7.47-14.25,17,4.36,11.36,18.14,18.48,29.83,15.42,5.9-1.55,8.27-5.37,6.4-11.3-1.49-4.74-3.73-9.24-5.42-13.92-2-5.57-4.72-9.61-11.61-6.83A7.21,7.21,0,0,1,99.85,540.56ZM674,457c12.17.1,21.53-8.1,24.86-18.72,2.92-9.33-2.7-16.09-12.57-15.91-5,.1-9.73,2.3-14.81,1.53-1.87-.28-1.95,1.28-2.35,2.56a146.73,146.73,0,0,0-4.67,19.39C663.27,453.17,666.62,457,674,457ZM782.34,544c-.44,3.81,1,5.46,4.31,6.82,15.54,6.39,31.77,9.78,48.37,11.47a193.66,193.66,0,0,0,34.15.32c-6-4.16-12.85-6.49-18.58-10.8a1.3,1.3,0,0,0-1-.17c-9.51,2.31-19.12.66-28.61.2C807.93,551.17,794.88,549.41,782.34,544Zm-589.5,22.84c-1.08-1.73-1.92-1.67-2.94-1.08a21.11,21.11,0,0,1-9.54,2.62c-4.33.2-5.19,2.52-5.26,6.14a69.07,69.07,0,0,0,1.55,14.35c1.25,6.57,3.27,7.95,10,6.91a67.42,67.42,0,0,0,7.66-2.1c10.09-2.88,15.08-12.75,24.45-17.22-9.55-3.28-15.6-3.43-24.79-.91a22.24,22.24,0,0,1-5.36,1.06c-3.7.06-5.13-2.94-5.59-5.73-.39-2.35,2.51-1.75,4-2.29C188.85,567.9,190.76,567.42,192.84,566.81Zm284-332.38C470,222,467.8,220.89,454.8,223.2c-1.85.33-3.72.68-4.56,2.56-3.23,7.15-4.31,15-7.3,22.27A162.32,162.32,0,0,1,476.85,234.43ZM835.91,540.7c-4-4.49-7.22-7.69-13.62-7.76-13.23-.17-26.49-1.44-39.24-5.64-.88-.29-1.9-1.16-2.39.35-.44,1.35.23,2.12,1.65,2.45,4.35,1,8.68,2.18,13,3.2C808.52,536.38,821.65,539.71,835.91,540.7Zm-9.57-9.63c-2.64-4-5.82-6.93-9.71-7.09a143.68,143.68,0,0,1-33.24-5.6c-2.78-.79-3.19.66-3.14,2.78,0,1.08-.36,2.3,1.42,2.63C796.29,526.45,810.88,529.3,826.34,531.07ZM161,447.94c.12-1.9.26-3.37.32-4.84.1-2.65-.17-5.35.31-7.91.63-3.34-1.2-4.4-3.75-5.21-7.52-2.41-7.52-2.42-9.43,5.17-.16.64-.35,1.28-.52,1.92-2,7.52-2,7.5,5.82,9.07C156,446.6,158.21,447.24,161,447.94ZM949.23,433c-.07,8.49-.07,8.49,7.49,7.51s7.57-1,5.61-10.08c-.53-2.45.82-6.2-2-7.05-2.39-.73-5.5.61-8.22,1.32C946.78,426.1,950.5,430.66,949.23,433ZM603.67,342.75c1.57-.76,2.74-1.34,3.92-1.9,3.2-1.53,8.51-1.52,9.29-4.38s-2.79-6.42-3.7-9.88c-1.2-4.57-3-4.83-7.21-3.11-4.67,1.93-6.54,4.18-4.75,9.18C602.33,335.74,602.8,339.05,603.67,342.75Zm33.21-7.47c-.83-3.37-2.14-6.64-2.34-10s-1.76-4-4.5-4.57c-8.29-1.75-8.27-1.86-7.88,6.4.39,8.45.39,8.44,8.55,8.16C632.65,335.22,634.6,335.28,636.88,335.28ZM127.34,446.45a8.52,8.52,0,0,0,1.85-.33c3.75-1.53,9.69.63,11.23-2.59s-.46-8.29-.93-12.55c-.08-.78.19-1.7-.68-2.22-1.78-1.07-11.36,3.16-11.43,5.18C127.23,438.05,127.34,442.17,127.34,446.45Zm855.9-3.69c0-4.09-.29-7.76.1-11.37.26-2.32-.62-3.23-2.39-4.21-8.13-4.48-9-4.09-10.37,4.92-1.1,7.32-1.1,7.29,6.23,8.87C978.74,441.38,980.63,442,983.24,442.76ZM212.8,465.07c-7.33-5.12-14.65-10.26-22-15.33-1-.69-2.68-2.7-3.23.05-.51,2.54-4.78,5.84-1,7.6A90,90,0,0,0,212.8,465.07Zm683.64-9.7.48,1.2c6.61-1.65,13.24-3.2,19.82-5,8.88-2.4,8.9-2.57,4.79-11.13ZM556.25,368.84c1.25.57,2.69-.44,4.13-1.21,4.82-2.58,9.65-5.15,14.41-7.83,7.32-4.1,7.3-4.13,2.52-11.22-.15-.22-.5-.31-.95-.58Zm-385.47,68c-.21,1.53-.33,2.64-.51,3.74-.53,3.3-4.14,6.88-2.08,9.46,1.83,2.3,6.21,2.58,9.46,3.74.14.05.32,0,.48-.06C180.08,439,179.5,441.76,170.78,436.81Zm760.79,9.87,2.55-.7c8.71-2.42,8.39-2.35,6.57-10.91-1.06-5-2.79-4.79-6.39-2.5-1.75,1.11-2.75,2.14-2.74,4.17C931.58,439.87,931.57,443,931.57,446.68ZM587.63,351.74c2.88-1.63,5.58-3.22,8.35-4.68,1.42-.76,1.95-1.49,1-3.06-1.64-2.7-3.14-5.48-4.6-8.27-.63-1.19-1.11-2.06-2.51-.84-2.71,2.37-6,4.3-4.15,8.93C586.67,346.22,587,348.88,587.63,351.74Zm-470.7,88.32c-5.87,4.63-5.87,4.63-3.76,14.79C121.28,449,119.9,452.76,116.93,440.06ZM806.6,519q-11.29-3.4-22.6-6.83c-1.13-.34-1.89-.21-2.19,1.12s-.08,2.26,1.47,2.52C790.94,517,798.4,519.49,806.6,519Zm-161-191.42c-1,11.13-1,11.13,6.66,13.54C651.16,336.09,653.2,329.86,645.65,327.54ZM993.56,437.12c-3.56,10.43-3.56,10.43,3.24,14.79C996.59,446.76,1000.51,441.1,993.56,437.12ZM104.42,455.67a96.61,96.61,0,0,0-5,9.09c-.89,2.1-4,4.26-2,6.3.83.87,3-2.65,4.42-4.19C104.75,463.79,110.17,461.19,104.42,455.67ZM669.29,354.08l1.17-1.13-9.7-12.32-1.26.34c.92,2.12-2.5,4,.32,6.17C662.92,349.52,666.13,351.77,669.29,354.08ZM1004.78,453c-3.83,5.83-2.95,7.92,6.75,16.51C1010.39,463.32,1007.28,458.58,1004.78,453ZM987.1,431.49c-.21,2.4-.52,4.67-.57,6.94s-1.78,5.77.57,6.12c2.74.41,1.34-3.46,2.06-5.35.35-.91.27-2,.66-2.87C991,433.65,989.66,432.43,987.1,431.49Zm-349-107.8c.47,3.38.86,6.62,1.4,9.84.2,1.22.11,3.26,1.74,3.1,2.37-.24.8-2.32.88-3.54.12-1.8-.44-3.66-.19-5.42C642.38,324.69,640.77,324,638.12,323.69Zm-514,111.24c-3,.9-4.43,1.87-3.58,4.78.59,2,.45,4.27.74,6.41.14,1-.51,2.73,1.38,2.5,1.35-.16,1.49-1.52,1.47-2.77C124.13,442.37,124.16,438.89,124.16,434.93Zm496-98.63,1-.29q-1.44-7.17-2.87-14.33c-.17-.88-.51-1.55-1.63-1.27s-1.64.86-1.2,2.12C617.08,327.11,618.62,331.71,620.19,336.3ZM142.33,444.49c2.92-4.82,2.84-9.29,2.92-13.69,0-1,1.06-2.88-1.47-2.72-1.87.12-1.42,1.49-1.43,2.53C142.3,434.92,142.33,439.23,142.33,444.49Zm824.28-5.16,1,.09c.22-5,.49-10.08.62-15.13,0-1.07-1.07-1.14-1.89-1.07-1.63.13-1,1.4-.93,2.23C965.79,430.08,966.21,434.71,966.61,439.33Zm-20.1.69c-.43-3.46-.86-6.93-1.32-10.38-.1-.72.27-1.89-1-1.83s-1.62.87-1.4,2.1c.63,3.42,1.17,6.87,1.8,10.29.16.84-.81,2.33.65,2.41C947.05,442.71,946.55,441.15,946.51,440ZM600.17,344.53c.92-4.57-1.88-8.22-3.06-12.26-.24-.84-.23-2.34-1.59-1.94s-1,1.61-.64,2.86C596.17,337.14,599,340.43,600.17,344.53ZM165.85,434.11c-.8,4.33-1.57,8.37-2.29,12.42-.15.89-.66,2.11.85,2.32,1.2.16,1-1,1.17-1.69.71-3,1.45-6.06,2.16-9.1C168.12,436.46,168.67,434.77,165.85,434.11Zm488.41-99.75c1.32,4.12-1.13,7.6,2.87,11C656.45,341.31,659.86,337.76,654.26,334.36ZM109,449c-4.16,3.34-.87,6.3-.34,9.26.11.63.84.59,1.17.26,2.29-2.24-.28-4.63.1-7C110,450.86,109.38,450,109,449ZM584.3,353.85c.6-3.4-.88-6.14-1.95-9-.24-.67-.29-1.86-1.55-1.28a1.41,1.41,0,0,0-.72,2.06C581.47,348.4,582.89,351.12,584.3,353.85ZM182.15,455.25c.85-2.78,1.65-5.57,2.55-8.33a1.52,1.52,0,0,0-1.15-2.22c-1.29-.34-1.14.8-1.3,1.5C181.54,449.16,180.85,452.13,182.15,455.25Zm818.91-8.47c-2,2.19-1.43,5.21-2.42,7.67-.11.28.36,1,.73,1.19a1.57,1.57,0,0,0,1.27-.29C1000.84,452.56,1005,450.07,1001.06,446.78Zm-73.48.93,1.28-.14c-.29-2.87-.55-5.74-.89-8.6-.08-.73,0-1.87-1.15-1.72s-1.56,1-1.25,2.15C926.27,442.16,926.91,444.94,927.58,447.71ZM190.66,571.56a11.92,11.92,0,0,0,7.34-1.39C194.83,568.8,192.84,570.71,190.66,571.56Zm78.09-182.39c.33-1.49-.16-2.68-1.56-4.1C266.4,387.28,268.39,387.93,268.75,389.17ZM911.84,551.35l-.29-.32c-.11.1-.22.2-.32.31l.45.32Z"/><path class="cls-1" d="M1153.31,638.81l-.1,2c-.63,19.66-1.45,39.31-1.09,59h-4c-.75-11.62,0-23.25.05-34.88.14-21.79.47-43.6,1.15-65.37,1.15-36.46.41-72.86-1.37-109.24-1.64-33.75-3.72-67.45-10.83-100.66-9.53-44.51-26.62-85.93-49-125.44-23-40.65-52.08-76.44-86.36-107.92-27-24.82-56.94-45.82-88.91-64-24.11-13.7-49.08-25.54-74.49-36.51-27.38-11.81-56-19.68-84.85-27-23.66-6-47.33-12-71.43-15.75C651.7,8.3,621.21,4.63,590.34,3.66a513.66,513.66,0,0,0-68.1,2.7C494.79,9.13,467.47,13,440.5,19.22c-35.45,8.18-70.85,16.55-105.13,28.85C310.8,56.89,287.25,68.11,264,80c-40.35,20.59-77.91,45.42-111.32,76-39,35.72-71.23,76.8-95.15,124.16-6,11.84-12.95,23.27-17.82,35.53A433.08,433.08,0,0,0,23.6,363.2,457.88,457.88,0,0,0,12,418.35C8.86,441,7.76,463.75,6.39,486.51c-3.55,59-1.81,118-.37,177.06.27,11.15.39,22.31.6,33.46,0,1-.33,2,.66,2.76h-5C1.65,668.36.94,636.92.41,605.48c-.66-38.58-.69-77.15,1.22-115.7C2.86,465,4,440.31,7.15,415.72c2.59-20,7.51-39.51,12.81-58.93C29.59,321.45,45.87,289,63.9,257.47c31.69-55.47,74.54-101,126.32-138.19C256.25,71.84,329,39.56,408.39,21.8,438.77,15,469.08,8.08,500.05,4.53c8.6-1,17.24-1.7,25.84-2.67.89-.1,3.48,1.1,2.32-1.86h89c.25.3.51.84.76.84.49,0,.54-.44.24-.84h6c-.77.38-1,1.07-.19,1.4a9.36,9.36,0,0,0,2.92.48c15,1.11,29.85,2.7,44.65,5.08,53.31,8.56,106,20.13,156.5,39.31,51.52,19.55,99.84,45.42,143.94,78.8a567.46,567.46,0,0,1,46,39.09l0,0,22.77,24.2,0,0c30.91,34.73,54.5,74.07,74,116.13,16.84,36.42,27.34,74.56,32.61,114.21,1.6,12,2.57,24.11,3.83,36.17l.27,8a14.79,14.79,0,0,0-.15,2q3.8,65,2.7,130.12C1153.71,609.57,1152.36,624.18,1153.31,638.81Z"/><path class="cls-1" d="M1103.13,699.79c.49-5.09-1.38-9.84-2.33-14.68-4.54-23-7.66-46.23-14.94-68.6-5.55-17.06-13.15-33-23.79-47.54a73.29,73.29,0,0,0-18-17.8c-1.18-.79-2.2-1.83-4.16-3.49,5.07.33,7.85,2.75,10.64,5,10.65,8.41,18.32,19.24,24.75,31,13,23.81,19.85,49.61,23.93,76.24,2,13.3,4,26.62,5.93,39.92Z"/><path class="cls-1" d="M353.23,699.79c.89-34.55,2.43-69.12-2-103.57-1.07-8.24-2.83-16.35-4.65-24.45-.58-2.6-1.76-5.1-1.34-7.45,3.32,3.3,3.79,8.3,5,12.9,6.67,26.07,7.85,52.69,7.36,79.42-.26,14.39-.88,28.77-1.33,43.15Z"/><path class="cls-1" d="M731.18,699.79c5.07-9.78,9.46-19.85,13.64-30.07,2.32-5.65,5.76-11,8.49-16.59q13-26.6,26.14-53.11c.2-.4.67-.66,1.83-1.76-2.61,8.15-6.19,14.75-9.4,21.48q-18.39,38.68-37,77.25c-.43.89-1,1.73-.69,2.8Z"/><path class="cls-1" d="M888.16,699.79c.23-9.76-1.46-19.39-1.9-29.11-.82-18.07-.34-36.13.15-54.2a88.36,88.36,0,0,1,.45-9.6c1.69,4.39,1.1,9,1,13.42-.75,25.1-.42,50.14,2.49,75.11.17,1.47.55,2.92.84,4.38Z"/><path class="cls-1" d="M450.22,699.79c1-2.48-1-5.11.47-8.3,2,2.83,1.75,5.75,2.53,8.3Z"/><path class="cls-1" d="M904.35,156.81v14.8c-2.4-3.86-1.92-8.05-2.37-12.59-4.07,2.28-6.44,6.21-9.92,8.74l-.89-.84c2.89-3,5.66-6.09,8.69-8.93,2.18-2,2.31-3.59.09-5.71-2.82-2.69-5.38-5.67-8.28-8.77,4.8-1.8,6.11,3.1,9.64,4,1.32-2.87-.27-6.44,2.07-10.13,1.67,5.33.83,9.94,1.69,14.62,3.22-1.4,4.69-4.8,8.2-5.11-1.17,3.74-6.92,4.54-6.16,7.76.69,2.87,4.69,4.87,6.94,7.49.79.92,3.26,1.93,1.65,3.45-1.46,1.37-2.51-.92-3.55-1.77C909.87,162,907.76,159.91,904.35,156.81Z"/><path class="cls-1" d="M524,134.71c-4.75-.41-7.16-3.23-10.55-4.8-.4,3.05-.76,5.83-1.13,8.6l-.83,0c-.12-2.67-.24-5.35-.4-8.94l-15.94,9.87-.54-.85c3.9-2.6,7.72-5.36,11.75-7.75,3.26-1.94,4.4-3.3.37-5.84a27.78,27.78,0,0,1-8.55-7.45c5.4,1.27,8.53,4.59,13,6.84.39-5.68.75-10.88,1.1-16.08l.84,0V125.9c6.2-2.69,11.08-6.23,17.14-7.35l-15.69,8.62Z"/><path class="cls-1" d="M1118.23,523c-1.43,1.43-.72,2.4.49,3.62,2,2,4.53,3.74,5.31,6.94-6.54-3.58-12-8.43-17.3-14,3.26-.23,3.26-.23,7.13,1.86.43-2.9.84-5.74,1.39-9.43,1.31,3.22.69,5.72.8,8.16,0,1.1-.68,2.94,1.73,2.44Z"/><path class="cls-1" d="M298.33,107.48c3.24-.32,4.6,1.4,4.57,3.73,0,1.51-.18,4.8-2.17,4.07a11,11,0,0,1-5.56-5.74C294.44,107.81,297.26,107.72,298.33,107.48Z"/><path class="cls-1" d="M722.25,43.88c-.84,1.15,2.28,3.13-.45,3.43-2.08.23-2.23-2.13-1.88-3.67.3-1.35-.93-4.11,1.54-3.82S722,42.49,722.25,43.88Z"/><path class="cls-1" d="M1093.56,330.1c2.67-1.32,4.22-.5,5.19,1.89.33.8.72,1.66-.07,2.19-1.09.72-1.73-.31-2.36-1C1095.45,332.23,1094.61,331.27,1093.56,330.1Z"/><path class="cls-1" d="M657.9,519.45c.05.84-.51,1.51-1.1,1.28a6.74,6.74,0,0,1-3.22-3.53c-.3-.56.62-1.11,1.3-1.11C657.16,516.06,657,518.22,657.9,519.45Z"/><path class="cls-1" d="M764.41,135.46a5.33,5.33,0,0,1-4,2.44c-1-2-.13-3.94,0-6.31,1.24,1.44-.31,6,3.72,3.34A2,2,0,0,1,764.41,135.46Z"/><path class="cls-1" d="M756.94,140.53c1.33-2.32-2.11-2.44-2-4.24,4.57,1.71,4.57,1.71,2.24,4.68A1.76,1.76,0,0,1,756.94,140.53Z"/><path class="cls-1" d="M764.09,134.93c.33-.94,1.37-1.36,1.76-.73s-.68,1.11-1.44,1.25A2.14,2.14,0,0,0,764.09,134.93Z"/><path class="cls-1" d="M514.14,143.44c.06-1.37-.43-2-1.38-2a1.38,1.38,0,0,0-1.52,1.53,1.45,1.45,0,0,0,1.39,1.7A1.4,1.4,0,0,0,514.14,143.44Z"/><path class="cls-1" d="M755.21,142c.16-1,.91-1.26,1.73-1.45a1.76,1.76,0,0,0,.26.44,1.6,1.6,0,0,1-1.82,1.14Z"/><path class="cls-1" d="M1117.78,522.54c.19-.54.68-.83,1-.42s-.19.68-.59.83Z"/><path class="cls-1" d="M754.27,143.08l-.5.43.42-.53Z"/><path class="cls-1" d="M754.19,143a.87.87,0,0,1,1-1l.17.13c0,.74-.4,1-1.11,1Z"/><path class="cls-1" d="M752.22,545.08a84.15,84.15,0,0,1,26.31,4.54C772.05,551,755.48,548.12,752.22,545.08Z"/><path class="cls-1" d="M752.4,552.87a160.7,160.7,0,0,1,24.06,2.4C770.48,557.62,755,556,752.4,552.87Z"/><path class="cls-1" d="M760.17,529.88a25.21,25.21,0,0,1,13.34,1.93c-5,1.91-11,1-13.2-2.09Z"/><path class="cls-1" d="M609.54,596.93c-15.53-27.41-31.59-54.51-48-81.73C566.28,518.25,602.92,580.33,609.54,596.93Z"/><path class="cls-1" d="M893.48,339c32.33,3,64.58,6.77,95.56,17,11.59,3.83,23.08,8.41,33.33,15.46,4.75,3.27,6.88,7.47,6.1,13.18-.6,4.44-1,9-3.39,12.91-2.76,4.44-5.12,5-8.74,1.32-7.7-7.82-15-16.06-20.43-25.68-1.95-3.46-3.7-7.26-1.75-11.37.83-1.75.13-2.3-1.33-2.83-9.22-3.38-18.8-5.42-28.34-7.61a1.61,1.61,0,0,0-2.06.73c-6,9.61-16.17,11.51-26,13.66-4,.88-9.14.2-12.27,1.4-8.16,3.14-16.62,3.35-24.86,5.14a35.76,35.76,0,0,1-6,.46c-15.33.59-20.26-3.19-26.12-19.15-2.78-7.56.8-12.61,8.86-13.78A84.05,84.05,0,0,1,893.48,339Zm.42,3.17c-4.79.31-10.1.61-15.41,1a35.18,35.18,0,0,0-4.41.8c-2.25.47-4,1.27-4.12,4.11-.28,6.47,8,19,14,21,7.23,2.39,15.26,2.14,22,1.08,7-1.12,14.62-1.52,21.62-4.27,5.35-2.1,11.33-2.57,17-4.05a38.46,38.46,0,0,0,14.19-7.09,3.29,3.29,0,0,0,1.51-3.45c-.3-1.25-1.46-1.11-2.41-1.28A494.14,494.14,0,0,0,893.9,342.16ZM1026,382c.55-2.76-.83-4.28-3.06-5.61-7.11-4.24-14.1-8.7-21.22-12.94-1.58-.94-3.53-3.28-5.07-1.91s-.53,4.06.26,6.11a16.11,16.11,0,0,0,1.28,3.23,164.15,164.15,0,0,0,21,25.79c2,2,3,1.13,3.78-1.13A73.7,73.7,0,0,0,1026,382Z"/><path class="cls-1" d="M816.27,442.85c2.38-12,7.66-18.15,14.56-16.7C824.63,430.5,822.78,437.83,816.27,442.85Z"/><path class="cls-1" d="M822,421.73c-6.07,4-7.55,11.58-13.27,15.94C807.9,429.68,815.4,420.26,822,421.73Z"/><path class="cls-1" d="M839.36,430.08c-6.84,4-8.52,11.24-13.71,16C824.93,437.59,832.08,428.41,839.36,430.08Z"/><path class="cls-1" d="M859.94,445.23c-6.23,4.11-9.85,9.89-15.19,15.17C846.29,450.92,853.33,443.8,859.94,445.23Z"/><path class="cls-1" d="M831.13,449.74c1.32-8.65,8.15-16,14.41-14.79C839.53,439,836.67,445.27,831.13,449.74Z"/><path class="cls-1" d="M854.49,439.83c-7.29,3.41-9.37,10.45-14.86,14.82C839.77,446.41,847.13,438.24,854.49,439.83Z"/><path class="cls-1" d="M811.24,418.24c-6.39,4.28-7.6,11.3-12.76,16.12C798.9,424.75,804.14,417.54,811.24,418.24Z"/><path class="cls-1" d="M785.89,415.48l.88-.88a4.8,4.8,0,0,1,5.16-.34c-4.57,4.5-7.24,10.21-12.5,14.83.12-5.23,3.58-8.12,5.24-11.81Z"/><path class="cls-1" d="M849.85,464.52c3.95-11.48,9-16.41,16-15.35C859.72,453.46,855.81,459.16,849.85,464.52Z"/><path class="cls-1" d="M786.86,430.46c2.23-9.87,6.86-15.52,13-15.23C794.79,419.88,792.4,425.93,786.86,430.46Z"/><path class="cls-1" d="M187.67,375.34c.31-.88.28-1.6-.82-1.84l-.06.19c11.14,2,21.87,5.93,33.36,6.45,14,.64,20.91-3.78,25.4-17.22,1.67-5,1-6.62-4.19-7.94a114,114,0,0,0-33.63-3c-16.25.74-32.54,1.32-48.69,3.6-2.25.32-3.94.49-3.64,3.29-2.29,1-1.34-3.23-4.25-2.34-4.86,1.49-10.17,1.17-15,3l-5,.81c-2.88.67-5.78,1.3-8.65,2-1.15.29-2.11.64-1.33,2.34,1.59,3.52,0,6.8-1.19,10.06l-1.14,1.95A164.3,164.3,0,0,1,98,399.55c-5.18,4.88-8.52,3.8-10.76-3.05a38.23,38.23,0,0,1-1.64-12.8,11.8,11.8,0,0,1,6.12-10.21c5.56-3.41,11.6-5.64,17.62-8.06,25.55-10.26,52.52-12.69,79.53-14.71,13.67-1,27.39-2.58,41.15-1.19,3.47.35,6.93.85,10.36,1.49s6.65,2.1,8.63,5.33l.66,2.62c0,.95,0,1.9,0,2.85-.17.95-.35,1.9-.52,2.85-.2.4-.4.79-.59,1.19l-.31,1c-.94,1.54-2,3-2.8,4.63-4.61,9.22-12.21,12.64-22.13,11.31-6.05-.81-12.05-1.94-18.08-2.92l-5.82-1.53-11.76-3Zm-99.77,9c.71,3.92,1.43,7.83,2.11,11.76.62,3.57,2.15,4,4.81,1.58a192.19,192.19,0,0,0,21.08-22.56c1.6-2,2.41-4.7,3.3-7.18.43-1.17.65-2.84-.47-3.73s-2.19.36-3.16.87c-7.81,4.05-15.51,8.3-23.38,12.2C89,378.83,87.52,380.81,87.9,384.33Z"/><path class="cls-1" d="M180.34,373.65c-6.89-2.58-14.31-4-20.2-8.76-2-1.61-5.11-2.57-4.89-6.06,7.1,7,16.08,10.2,25.39,12.82,1.61.46,3.75.05,4.54,2.24l-1,.31a1.72,1.72,0,0,0-.93,0Z"/><path class="cls-1" d="M133.31,395.88c1.16-2.87.56-6.2,2.79-9.67.88,8.74-1.93,16.42-2.22,24.28l0,.08c-.13.75-.26,1.51-.4,2.27-.67.91.4,2.9-1.78,2.89q.5-6.27,1-12.53h-.08c.09-.76.17-1.52.26-2.28C133,399.25,133.18,397.57,133.31,395.88Z"/><path class="cls-1" d="M591.42,258.89a21.23,21.23,0,0,1-9.12,8.2c-16.79,8.73-33.79,17-52,22.65-14.75,4.6-23.58-5.12-28.84-16.4-2.34-5,.51-9.43,6.61-12.06,8-3.46,16.51-5.13,25.07-6.42A525.54,525.54,0,0,1,605.26,249a159.63,159.63,0,0,1,52,7.82c9.57,3.14,14,18.83,8.43,27.24-1.52,2.28-3.3,3-5.41,1.68-11.2-6.85-22.44-13.7-30.33-24.62-.75-1-1.74-2.51-1.54-3.57,1.28-6.6-3.6-6.14-7.34-6.27-7.64-.27-15.3,0-22.95-.11-2.13,0-2.68.67-3.14,2.66a7.46,7.46,0,0,1-3.63,5.11c-1.56-1.19.11-1.82.54-2.56.75-1.31,1.86-2.58,1-4.11-1-1.76-2.7-.62-4.08-.53-6.14.38-12.3.59-18.4,1.28-19.14,2.16-38.42,3.53-56.8,10.07-11.32,4-12,7-3.8,16.17,4.69,5.23,9.55,10,17.47,8.22a163.72,163.72,0,0,0,61.67-27.9C589.62,259.06,590.1,257.34,591.42,258.89Zm73,16.06c0-2.59,0-3.75,0-4.92.17-4.85-1.35-8-6.74-9.27-7.72-1.86-15.23-4.66-22.82-7.07-1.4-.44-3.45-1.67-4.09-.44-.74,1.43-.42,3.37.94,5.27,6.18,8.63,15.3,13.69,23.45,19.91,2.43,1.86,5.48,5.24,8.06,3.88S664.27,276.59,664.4,275Z"/><path class="cls-1" d="M476.08,374.7l-1.32-.17c-.54-5.31,1.2-10.2,3.08-15,1-2.51,3-4.31,7.23-3.89C480.42,361.71,479.44,368.7,476.08,374.7Z"/><path class="cls-1" d="M465.19,371.85c.16-4.69,1.45-9.17,2.69-13.64,1-3.56,3.3-5.48,8.15-5-3.95,4.92-5.43,10.15-7.24,15.27-.52,1.47-1.15,3.6-3.55,3.51Z"/><path class="cls-1" d="M484.3,376.59c-1.22-5.84.75-11.15,2.89-16.38a4.94,4.94,0,0,1,4.34-3c1.15-.11,2.36.5,1.36,1.61-4.61,5.11-4,12.67-8.54,17.77Z"/><path class="cls-1" d="M627.9,307c.31,1.14.63,2.29,1,3.43-.51-.37-1.29-.63-1.49-1.12a277,277,0,0,1-11.71-34c3.46,5.13,4.76,11.15,7,16.78l1,3Z"/><path class="cls-1" d="M499.29,380.75l.12-2.53c1.21-3.6,2.32-7.23,3.66-10.78,1.16-3.09,3.38-4.68,7.76-4-4.65,4.62-6.11,10.3-8.73,15.41C501.59,379.83,501.22,381.6,499.29,380.75Z"/><path class="cls-1" d="M518.22,367.16c-5.49,5.59-7.42,12.19-11.54,18.33C506,376.32,511.19,367.69,518.22,367.16Z"/><path class="cls-1" d="M524.46,370.07c-5.11,5.28-7.08,12.1-11.6,18.32C513.13,377.39,517.76,370,524.46,370.07Z"/><path class="cls-1" d="M455.39,371.85c-1.06-12.06,1.93-18.69,8.2-18.61C459.13,358.38,459.45,365.28,455.39,371.85Z"/><path class="cls-1" d="M444.94,368.78c-.68.47-1.16,1.46-2.24.84,1-4,1.8-8,3-12,.8-2.68,2-5.29,6.12-4.76-1.46,4.18-4.1,7.66-4.68,11.88h0Z"/><path class="cls-1" d="M493.75,374.88l-.58,1.21-.61.76c-.6.69-1.2,1.39-2.27,1.2.35-4.7,2.28-8.95,4-13.22,1-2.47,2.72-4.59,6.52-4C498.3,365.62,495.21,369.87,493.75,374.88Z"/><path class="cls-1" d="M517.94,388.38c3.42-5,3.3-12.34,11.21-14.31L519,389.28Z"/><path class="cls-1" d="M125.21,459.87a28.12,28.12,0,0,1,.72-2.77c.22-.59-.06-1.85,1.18-1.41.37.14.44,1.12.64,1.71l.17.17-.33,3.26c-.06,1-.11,2-.17,3q-.66,5.91-1.31,11.82l-1.25,0c0-2.47,0-5-.08-7.43l-.1,0c.06-.76.13-1.52.2-2.28Z"/><path class="cls-1" d="M302.36,451.86l-1.11,1.19a24.93,24.93,0,0,1-5.83-8.55c-1.43-3.06-3.92-5.29-6.38-8.39,4.1-1.35,6.7.06,8.23,3.32C299.17,443.48,300.68,447.71,302.36,451.86Z"/><path class="cls-1" d="M270.06,467.75c-1.93-.17-2.72-1.8-3.6-3.08-2.94-4.32-5.43-9-10.22-12.4,3.89-1.51,6.33-.39,8,2.45,2.45,4.08,4.91,8.18,5.85,13Z"/><path class="cls-1" d="M293.45,454.87c-.08.7-.16,1.4-.25,2.11-2.49-1-3.71-3.17-4.81-5.41A50.47,50.47,0,0,0,280.27,440c4.52-1.1,6.82,1,8.35,3.95C290.46,447.46,291.86,451.21,293.45,454.87Z"/><path class="cls-1" d="M284.57,459.93l-1.32.14c-3.8-5.3-5.61-11.9-11.25-16.19C278.27,441.87,283.17,448.48,284.57,459.93Z"/><path class="cls-1" d="M244.66,460.78c9.73.33,9.58,9.44,13.49,15C252.7,471.68,249.78,465.27,244.66,460.78Z"/><path class="cls-1" d="M312.35,448.86c-.4,1-1.18.73-1.93.54-3-5.09-4.59-11.06-9.45-15.24,4-1.18,5.54-.76,7,2.52C309.66,440.63,310.9,444.79,312.35,448.86Z"/><path class="cls-1" d="M324.08,446.68h-1.59L312.4,431.58C321.09,433.08,321,441.09,324.08,446.68Z"/><path class="cls-1" d="M249.61,457.07c7-.47,12.56,5.93,14.49,16.23C258.89,467.76,255.75,461.76,249.61,457.07Z"/><path class="cls-1" d="M323.6,430.63l1,.88.89,1c1.94,4.43,5.48,8.17,5.71,13.33l-.49.08h-.49c-2.88-4.21-5.78-8.4-8.63-12.63-.52-.77-1.83-1.45-1.2-2.44C321.18,429.6,322.51,430.62,323.6,430.63Z"/><path class="cls-1" d="M278.27,463.3l-1-.14c-4-4.86-6.86-10.56-11.77-14.7C270.56,446.4,277,454,278.27,463.3Z"/><path class="cls-1" d="M252.55,477.75c-5.43-2.85-8.17-8.46-12.67-12.27,7.56.67,9.32,7.21,12.52,12.29Z"/><path class="cls-1" d="M252.4,477.77l-.21.15.35-.17Z"/><path class="cls-1" d="M561.6,488.55c1.56,2,2.15,3.87-.42,5.78-6,4.46-11.8,9.13-18.53,12.49-2.79,1.39-5.12,1.63-7.72-.58-3-2.52-7.15-3.52-9.58-7.42,4.26-.07,7,2.52,9.83,4.55,1.81,1.28,3.36,1.95,5.38.66q9.86-6.27,19.77-12.45c1.13-.7,1-1.54.71-2.53Z"/><path class="cls-1" d="M541.16,478.11c-7.67,5.92-14.58,11-22.38,14.67-1.12.53-2.75,1.13-3.63-.34-1.25-2.06,1-2.62,2-3.2,7.05-4.07,14.2-8,21.35-11.86C538.8,477.22,539.39,477.6,541.16,478.11Z"/><path class="cls-1" d="M512,465.33c-5,4.64-10.87,8.29-16.47,12.21-1.43,1-1.95-.7-2.74-1.39-1.28-1.12-.13-1.79.63-2.24,5.8-3.42,11.64-6.77,17.47-10.14Z"/><path class="cls-1" d="M545,486.24c-4.69,5.45-11.12,7.59-17.36,10.07a1.08,1.08,0,0,1-1.59-.63,1.67,1.67,0,0,1,.87-2.1C532.46,489.94,538.29,487,545,486.24Z"/><path class="cls-1" d="M496.45,459.11a84.93,84.93,0,0,1-12.21,9c-1,.61-1.37-.52-1.94-1a1.13,1.13,0,0,1,.23-2c4.28-2.52,8.6-5,12.91-7.47Z"/><path class="cls-1" d="M480.67,455.42c-1.41,3.86-4.73,5.08-7.43,7.07-1,.74-1.8.35-2.49-.57-.88-1.16-.27-1.7.77-2.19C474.58,458.31,477.62,456.86,480.67,455.42Z"/><path class="cls-1" d="M561,489.05c-3.57-2.24-6.79-5.16-11.47-5.52,3.91-2.33,7.94-.56,12,5Z"/><path class="cls-1" d="M273.68,551.3c8.57,1.47,11.89,9.4,17.59,14.41C284.19,562.39,279,556.79,273.68,551.3Z"/><path class="cls-1" d="M305.76,560.38c-1,.26-1.88.56-2.79-.26A158.12,158.12,0,0,1,289.41,547c7.28,2.21,11.2,8.54,16.3,13.41Z"/><path class="cls-1" d="M329,553.07l-16.22-15.2,1.84-1.89c6.47,4.1,10.49,10.8,15.51,16.45Z"/><path class="cls-1" d="M263.32,557.77a5.9,5.9,0,0,1,5.22,2.31c3.2,3.81,7.47,6.73,9.53,11.54-5.45-4.08-11.78-7.2-14.57-14Z"/><path class="cls-1" d="M327.89,540.61c4.89,1.4,7.65,4.87,9.63,8.4Z"/><path class="cls-1" d="M330.14,552.43c.42.41,1.09.88.23,1.38-.63.38-1.15,0-1.36-.74C329.38,552.85,329.76,552.64,330.14,552.43Z"/><path class="cls-1" d="M788.26,363.06c-4.07-1.61-8.19-.65-12.72-4.18,2.91,7.57-7.32,13.83.81,19.94-5-.86-5.42-1-4.66-6.17.68-4.65-.35-9.44,2.19-14.06,1.2-2.18,2.16-2.5,3.75-1.95,4.38,1.5,8.66,3.27,13,5,1.32.52,1.52,1.65,1.26,2.9-1,4.91-3.44,9.32-5.16,14-.19.49-1.06,1.19-1.34,1.08-1.31-.51-1.45-1.73-1.16-2.92C785.27,372.15,786,367.55,788.26,363.06Z"/><path class="cls-1" d="M894.1,598.79c3.7-2.74,3.89-7.07,5-11a6.22,6.22,0,0,1,5.24-2.2c12,.92,22.48,6.82,33.8,9.95l-.29,1.39c-1.93-.38-3.87-.69-5.78-1.16-9-2.21-18.2-3.91-26.91-7.25-1.83-.7-2.22-.21-2.85,1.21-1.2,2.72-2.55,5.37-4.14,8.67,12.46,2.06,23.76,7.17,35.86,10.5-1.16,1.78-2.4,1.16-3.35.92-10.44-2.63-21.11-4.37-31.36-7.77C897.32,601.4,895.06,601.15,894.1,598.79Z"/><path class="cls-1" d="M906.27,578.07c11.69.22,21.93,4.73,32.61,7.37C933.71,587.69,909.92,582.19,906.27,578.07Z"/><path class="cls-1" d="M913.37,566.23c9.25.54,17.68,4.54,27.17,6.51C936.26,574.48,918.8,570.36,913.37,566.23Z"/><path class="cls-1" d="M211.43,540.25c0,4.78-3,8.67-7,8.84-3.71.16-8.67-4.91-8.64-8.84,0-3.59,4.77-8.72,8.12-8.78C208.24,531.4,211.39,535.09,211.43,540.25Zm-4,0c-.22-2.26.5-5.23-3-5.2-3.21,0-5.12,2.09-5.34,5.35-.19,2.86,1.25,5.07,4.06,5.25C206.73,545.88,207.05,542.84,207.43,540.24Z"/><path class="cls-1" d="M576.8,432.24c3.66-.07,8.66,5,8.67,8.79,0,4.12-4.13,9-7.71,9-4.31.07-7.87-4-7.93-9.13S572.68,432.31,576.8,432.24Zm-3.17,7.47c.74,3,.87,6.59,4.74,6.69,2.51.07,4.06-2.08,3.87-4.81-.25-3.49-2.21-5.47-5.73-5.52C574.09,436,573.65,437.84,573.63,439.71Z"/><path class="cls-1" d="M900.15,522.14c3.63,0,8.26,5.34,8.14,9.32-.1,3.57-5,8.48-8.49,8.57-4.06.11-7.51-4.14-7.32-9S896.2,522.1,900.15,522.14Zm-3.52,8.52c.32,2.62.27,5.82,3.86,5.83,2.79,0,4.51-2.16,4.4-5-.12-3.14-1.79-5.45-5.14-5.54C896.59,525.86,897.09,528.67,896.63,530.66Z"/><path class="cls-1" d="M994,551.2a27.07,27.07,0,0,1,1.32-4.25c1.42-3,3.39-5.35,7-5.53,3.86-.18,5.59,2.64,7.1,5.37a6.93,6.93,0,0,1-1.71,9.05c-2.6,2.29-4.92,6-9.33,4.16C994.84,558.5,994.26,555.17,994,551.2Zm12.35-2.47a3.52,3.52,0,0,0-3.86-3.68c-3.9,0-4.09,3.36-4.14,6.11,0,2.24.33,5.43,3.23,5.2C1005,556.09,1006.26,553.1,1006.37,548.73Z"/><path class="cls-1" d="M108.66,554.12c-.09,3.5-1,6.74-4.4,8.26-4.44,2-6.59-1.93-9.09-4.29s-3.52-5.74-1.59-9,4.11-6.24,8.62-5.16C105.75,544.78,108.63,549.42,108.66,554.12Zm-4-1.12c-.42-2.83-.53-5.88-4.21-5.72-3,.14-4.09,2.45-4,5.23.13,3,1.34,6,4.48,6.19C104.59,558.88,104.19,555.28,104.71,553Z"/><path class="cls-1" d="M689.23,434.85c.1,4.48-4.89,10.94-8.53,11s-7.2-4.25-7.37-9.23c-.18-5.45,3.23-10.12,7.44-10.18C684.67,426.41,689.13,430.83,689.23,434.85Zm-3.91.8c-.25-2.91-1-5.54-4.44-5.54-3,0-3.77,2.37-3.6,4.88.21,2.84.81,6.33,4.08,6.47C684.4,441.58,685.23,438.42,685.32,435.65Z"/><path class="cls-1" d="M601.89,481.49c-8.85.2-18,3.81-26.14-2.61C584.46,480,593.31,479.48,601.89,481.49Z"/><path class="cls-1" d="M580.31,489.74l-.91-1.08c-.09-.66-1.08-1.93.36-1.77a100.19,100.19,0,0,1,15.94,3A25.89,25.89,0,0,1,580.31,489.74Z"/><path class="cls-1" d="M181.13,588.85c8.47-3.57,17.18-6.39,25.16-10.83.89-.49,2-.79,2.67.28a1.91,1.91,0,0,1-.7,2.63c-6.61,5.09-13.39,9.85-21.86,11.38C183.71,592.8,182.49,591.16,181.13,588.85Z"/><path class="cls-1" d="M205.28,577.79c-7.14,1.39-13.39,7.2-21.33,4.62l-.3-1.45,21.28-5.1C205.05,576.5,205.16,577.15,205.28,577.79Z"/><path class="cls-1" d="M237.17,571.77a6.15,6.15,0,0,1,6,2.72c2.92,4.25,7.66,7.15,9.2,12.43A47.05,47.05,0,0,1,237.17,571.77Z"/><path class="cls-1" d="M227.34,576.73c7.39,2.39,10.53,9.28,15.27,14.46-5.48-4.4-12.2-7.52-15.11-14.61Z"/><path class="cls-1" d="M252.71,411.35c-1.76,4.27,1.6,8,1,12.27A88.49,88.49,0,0,1,246.64,405a1.34,1.34,0,0,1,.5-1.18c.86-.42,1.49.09,2.09.77,1.74,2,1,5.24,3.52,6.86Z"/><path class="cls-1" d="M250.32,425.94c-3-.9-2.33-4.31-4.14-6-.11-4.42-2.79-8.09-3.56-12.32-.17-.92-.81-2.21.3-2.67,1.37-.58,2,.7,2.48,1.8A86.29,86.29,0,0,1,250.32,425.94Z"/><path class="cls-1" d="M255.22,399c2.62-.5,2.54,1.89,2.91,3.16A125.89,125.89,0,0,1,261.81,419c-2.72-6.54-6.12-12.84-6.47-20.14Z"/><path class="cls-1" d="M504,333.41c-.58-6.21-1-12.38.47-18.48.24-1,.52-2.54,2.16-2.1,1.27.35.94,1.63.81,2.52C506.56,321.41,506.63,327.65,504,333.41Z"/><path class="cls-1" d="M499.37,327.76a47.69,47.69,0,0,1,1.08-15.69,2,2,0,0,1,1.36-1.11c.78-.11,1.12.7,1,1.35-.68,5.21-1.41,10.41-2.13,15.62Z"/><path class="cls-1" d="M844.8,383.6c-.52.68-.51,2.46-1.55,1.86s-.35-2,.5-3Z"/><path class="cls-1" d="M271.3,397.82c0,1.39,0,2.78,0,4.17-1-1.22-1.77-2.52-1.08-4.18Z"/><path class="cls-1" d="M269.2,411c-.83-.29-1.22-.82-.88-1.71.05-.11.34-.26.38-.23.7.57.56,1.31.37,2.06Z"/><path class="cls-1" d="M857.08,412c.95-5.14,3.83-9.76,4-15.1,2.09-1.2,2-6.08,4.58-4.7,2.32,1.25-.3,4.65-1.35,6.75C862.12,403.36,861.9,409,857.08,412Z"/><path class="cls-1" d="M858.23,386.85a54.59,54.59,0,0,1-8.1,20.11c.86-6.39,3.11-12.38,5.45-18.32C856,387.63,856.3,385.86,858.23,386.85Z"/><path class="cls-1" d="M224.89,358.18c2.16-.84,3.93-.27,5.67.12,8,1.77,8.15,2.24,3.23,9.8a7.16,7.16,0,0,1,.17-2.18c2.47-4.66-.22-5.64-4.08-5.78C228.1,360.07,226.13,360.65,224.89,358.18Z"/><path class="cls-1" d="M186.85,373.5l.09.3-.13-.09S186.85,373.5,186.85,373.5Z"/><path class="cls-1" d="M881.13,346.21c3,.11,6.59-1.4,8.19,1.92s.11,6.87-2.37,10.71c-1-3.81,1.51-6.43.67-9.3C886.64,346.13,881.83,350.63,881.13,346.21Z"/><path class="cls-1" d="M521.69,274.69c.26-2.07.53-4.14.83-6.47-3.4-.34-6.12,1.79-9.2,1.94-1,0-2.14.17-2.32-1.2-.15-1,.84-1.44,1.57-1.61,3.54-.86,7.1-1.71,10.7-2.35,1.76-.31,2.81.38,2.34,2.56A12,12,0,0,1,521.69,274.69Z"/></g></g></svg>